<svg xmlns="http://www.w3.org/2000/svg" xmlns:xlink="http://www.w3.org/1999/xlink" fill="none" version="1.1" width="36" height="36" viewBox="0 0 36 36"><defs><clipPath id="master_svg0_74_0822"><rect x="0" y="0" width="36" height="36" rx="0"/></clipPath></defs><g style="mix-blend-mode:passthrough" clip-path="url(#master_svg0_74_0822)"><rect x="0" y="0" width="36" height="36" rx="0" fill="#FFFFFF" fill-opacity="0"/><g style="mix-blend-mode:passthrough"><g style="mix-blend-mode:passthrough"><g><path d="M32.5338,12.12665417175293C28.2226,14.11755417175293,23.7628,13.112894171752929,18.6521,14.51270417175293C14.569,15.625184171752931,11.1178,18.40047417175293,9.77589,25.87420417175293C12.0443,22.99640417175293,14.4204,20.99626417175293,17.0024,19.55437417175293C19.4726,18.17363417175293,22.1348,17.291284171752928,25.0804,16.61734417175293C25.4006,16.54436417175293,25.5314,17.00198417175293,25.2205,17.10455417175293C21.3787,18.36233417175293,18.0301,19.94164417175293,15.2311,21.97400417175293C12.2507,24.143004171752928,9.88373,26.84400417175293,8.20646,29.96980417175293C2.40301,26.19590417175293,0.13595599999999997,18.80708417175293,2.8242000000000003,12.42778417175293C2.8524700000000003,12.36203417175293,2.8814,12.29629417175293,2.91099,12.23054417175293Q2.83078,11.721638171752929,2.74004,11.200245171752929C2.7308399999999997,11.147645171752929,2.72098,11.09504587175293,2.7111099999999997,11.04310417175293Q2.4264200000000002,11.58816717175293,2.18512,12.16084417175293C-0.9788399999999999,19.648084171752927,2.4043799999999997,28.29250417175293,9.81,31.64300417175293C17.2156,34.993604171752935,25.9421,31.82800417175293,29.4771,24.50860417175293Q28.9294,24.85770417175293,28.3363,25.173304171752932C24.4046,31.93680417175293,15.7635,34.278704171752935,8.95468,30.42610417175293C13.4473,23.398704171752932,19.6179,27.90320417175293,25.8701,25.45210417175293C31.631,23.191604171752928,34.3254,18.43071417175293,34.9843,13.43244417175293C35.0309,13.08265417175293,35.1381,10.92343917175293,32.5338,12.12665417175293Z" fill="#54C024" fill-opacity="1"/></g><g><path d="M4.996295320281982,11.573384857406616C5.629465320281982,15.202104857406615,5.755705320281983,18.325194857406615,6.135735320281983,20.224094857406616C6.3987353202819826,21.543594857406617,7.3152853202819825,23.533894857406615,8.995175320281984,24.768694857406615C10.408135320281982,17.723594857406617,13.785035320281983,15.062054857406617,17.76223532028198,13.979814857406616C18.580435320281982,13.758714857406616,19.410735320281983,13.584844857406615,20.248835320281984,13.459084857406616L20.231135320281982,13.431464857406617C18.334935320281982,10.560844857406616,14.069735320281982,4.482954857406616,1.7890353202819824,6.951853857406617Q4.363125320281982,7.944014857406616,4.996295320281982,11.573384857406616ZM7.317915320281982,7.719804857406617C7.852065320281983,7.719804857406617,8.285085320281983,8.152824857406616,8.285085320281983,8.686984857406616C8.285085320281983,9.221134857406616,7.852065320281983,9.654154857406617,7.317915320281982,9.654154857406617C6.7837553202819825,9.654154857406617,6.3507353202819825,9.221134857406616,6.3507353202819825,8.686984857406616C6.3507353202819825,8.152824857406616,6.7837553202819825,7.719804857406617,7.317915320281982,7.719804857406617Z" fill="#E4EA13" fill-opacity="1"/></g><g><path d="M10.432461601715088,4.85111748046875C17.630721601715088,1.81728748046875,25.931531601715086,5.12150748046875,29.075731601715088,12.27226748046875Q29.432731601715087,12.22360748046875,29.787831601715087,12.16706748046875C26.24263160171509,3.78621848046875,16.10347160171509,0.47868748046875,8.298231601715088,5.15685748046875Q8.873539601715088,5.22917748046875,9.415971601715087,5.3284574804687495Q9.913701601715088,5.07137748046875,10.432461601715088,4.85111748046875Z" fill="#54C024" fill-opacity="1"/></g></g></g></g></svg>