<svg xmlns="http://www.w3.org/2000/svg" fill="none" version="1.1" width="36"
     height="36" viewBox="0 0 36 36">
    <defs>
        <clipPath id="master_svg0_74_030">
            <rect x="0" y="0" width="36" height="36" rx="0"/>
        </clipPath>
    </defs>
    <g style="mix-blend-mode:passthrough" clip-path="url(#master_svg0_74_030)">
        <rect x="0" y="0" width="36" height="36" rx="0" fill="#FFFFFF" fill-opacity="0"/>
        <g style="mix-blend-mode:passthrough">
            <g>
                <path d="M32.5338,12.12659313659668C28.2226,14.11749313659668,23.7628,13.112833136596679,18.6521,14.51264313659668C14.569,15.625123136596681,11.1178,18.40041313659668,9.77589,25.87414313659668C12.0443,22.99634313659668,14.4204,20.99620313659668,17.0024,19.55431313659668C19.4726,18.17357313659668,22.1348,17.291223136596678,25.0804,16.61728313659668C25.4006,16.54430313659668,25.5314,17.00192313659668,25.2205,17.10449313659668C21.3787,18.36227313659668,18.0301,19.94158313659668,15.2311,21.97394313659668C12.2507,24.142943136596678,9.88373,26.84394313659668,8.20646,29.96974313659668C2.40301,26.19584313659668,0.13595599999999997,18.80702313659668,2.8242000000000003,12.42772313659668C2.8524700000000003,12.36197313659668,2.8814,12.29623313659668,2.91099,12.23048313659668Q2.83078,11.721577136596679,2.74004,11.200184136596679C2.7308399999999997,11.147584136596679,2.72098,11.09498483659668,2.7111099999999997,11.04304313659668Q2.4264200000000002,11.58810613659668,2.18512,12.16078313659668C-0.9788399999999999,19.648023136596677,2.4043799999999997,28.29244313659668,9.81,31.64294313659668C17.2156,34.993543136596685,25.9421,31.82794313659668,29.4771,24.50854313659668Q28.9294,24.85764313659668,28.3363,25.173243136596682C24.4046,31.93674313659668,15.7635,34.278643136596685,8.95468,30.42604313659668C13.4473,23.398643136596682,19.6179,27.90314313659668,25.8701,25.45204313659668C31.631,23.191543136596678,34.3254,18.43065313659668,34.9843,13.43238313659668C35.0309,13.08259313659668,35.1381,10.92337813659668,32.5338,12.12659313659668Z"
                      fill="#68D9C6" fill-opacity="1"/>
            </g>
            <g>
                <path d="M4.996295379886627,11.573323822250366C5.629465379886627,15.202043822250365,5.755705379886628,18.325133822250365,6.135735379886627,20.224033822250366C6.398735379886627,21.543533822250367,7.315285379886627,23.533833822250365,8.995175379886629,24.768633822250365C10.408135379886627,17.723533822250367,13.785035379886628,15.061993822250367,17.762235379886626,13.979753822250366C18.580435379886627,13.758653822250366,19.410735379886628,13.584783822250365,20.24883537988663,13.459023822250366L20.231135379886627,13.431403822250367C18.334935379886627,10.560783822250366,14.069735379886627,4.482893822250366,1.7890353798866272,6.951792822250367Q4.363125379886627,7.943953822250366,4.996295379886627,11.573323822250366ZM7.317915379886627,7.719743822250367C7.852065379886628,7.719743822250367,8.285085379886628,8.152763822250366,8.285085379886628,8.686923822250366C8.285085379886628,9.221073822250366,7.852065379886628,9.654093822250367,7.317915379886627,9.654093822250367C6.783755379886627,9.654093822250367,6.350735379886627,9.221073822250366,6.350735379886627,8.686923822250366C6.350735379886627,8.152763822250366,6.783755379886627,7.719743822250367,7.317915379886627,7.719743822250367Z"
                      fill="#13EAE2" fill-opacity="1"/>
            </g>
            <g>
                <path d="M10.43246112487793,4.8510564453125C17.63072112487793,1.8172264453125,25.931531124877928,5.1214464453125,29.07573112487793,12.2722064453125Q29.43273112487793,12.2235464453125,29.78783112487793,12.1670064453125C26.24263112487793,3.7861574453125,16.10347112487793,0.4786264453125,8.29823112487793,5.1567964453125Q8.87353912487793,5.2291164453125,9.41597112487793,5.3283964453124995Q9.91370112487793,5.0713164453125,10.43246112487793,4.8510564453125Z"
                      fill="#68D9C6" fill-opacity="1"/>
            </g>
        </g>
    </g>
</svg>