<svg xmlns="http://www.w3.org/2000/svg" xmlns:xlink="http://www.w3.org/1999/xlink" fill="none" version="1.1" width="16" height="16" viewBox="0 0 16 16"><defs><clipPath id="master_svg0_34_3416"><rect x="0" y="0" width="16" height="16" rx="0"/></clipPath></defs><g style="mix-blend-mode:passthrough" clip-path="url(#master_svg0_34_3416)"><rect x="0" y="0" width="16" height="16" rx="0" fill="#FFFFFF" fill-opacity="1"/><g style="mix-blend-mode:passthrough"><g style="mix-blend-mode:passthrough"><g><path d="M14.8394,5.393417554595947C12.8106,6.278809554595947,10.7119,5.832021554595947,8.30686,6.454549554595947C6.38543,6.949289554595947,4.76134,8.183519554595946,4.12983,11.507259554595947C5.1973,10.227409554595948,6.3155,9.337919554595947,7.53055,8.696689554595947C8.693,8.082639554595946,9.9458,7.690239554595948,11.332,7.390529554595947C11.4826,7.358069554595947,11.5442,7.561579554595948,11.3979,7.607199554595947C9.58998,8.166559554595947,8.01416,8.868909554595948,6.697,9.772729554595948C5.29445,10.737359554595947,4.18058,11.938549554595948,3.39127,13.328629554595947C0.660238,11.650309554595946,-0.406609,8.364349554595947,0.858448,5.527338554595947C0.871752,5.4980985545959475,0.885366,5.468858554595947,0.89929,5.439617554595947Q0.861542,5.213298554595947,0.818843,4.981423654595948C0.814512,4.958031454595948,0.809871,4.934639154595947,0.805229,4.911539554595947Q0.671255,5.153940554595947,0.557702,5.408623554595947C-0.93122,8.738359554595947,0.660886,12.582709554595947,4.14588,14.072769554595947C7.63088,15.562839554595948,11.7374,14.155009554595948,13.401,10.899939554595948Q13.1432,11.055199554595948,12.8642,11.195559554595947C11.0139,14.203409554595947,6.94753,15.244939554595947,3.74338,13.531559554595948C5.85758,10.406359554595948,8.76138,12.409609554595948,11.7036,11.319539554595949C14.4146,10.314259554595948,15.6826,8.196969554595947,15.9926,5.974129554595947C16.0146,5.818570554595947,16.065,4.858322154595947,14.8394,5.393417554595947Z" fill="#989898" fill-opacity="1"/></g><g><path d="M1.8637921576976777,5.151520259742737C2.161752157697678,6.765290259742737,2.2211621576976777,8.154200259742737,2.4000021576976778,8.998660259742737C2.5237621576976776,9.585510259742737,2.9550821576976776,10.470610259742736,3.7456221576976776,11.019740259742736C4.4105421576976775,7.886650259742737,5.999662157697678,6.703010259742737,7.871282157697678,6.221710259742737C8.256332157697678,6.123380259742737,8.647032157697678,6.046060259742736,9.041472157697678,5.990130259742736L9.033122157697678,5.977850259742737C8.140782157697679,4.701220259742737,6.133642157697677,1.9982552597427368,0.3544921576976776,3.096226259742737Q1.5658321576976777,3.537461259742737,1.8637921576976777,5.151520259742737ZM2.9563121576976776,3.437752259742737C3.2076821576976777,3.437752259742737,3.4114521576976777,3.6303252597427367,3.4114521576976777,3.867880259742737C3.4114521576976777,4.105430259742737,3.2076821576976777,4.298000259742737,2.9563121576976776,4.298000259742737C2.7049521576976776,4.298000259742737,2.5011721576976775,4.105430259742737,2.5011721576976775,3.867880259742737C2.5011721576976775,3.6303252597427367,2.7049521576976776,3.437752259742737,2.9563121576976776,3.437752259742737Z" fill="#BBBBBB" fill-opacity="1"/></g><g><path d="M4.434678382720947,2.14709209375C7.822098382720947,0.79788009375,11.728368382720948,2.26734109375,13.207988382720947,5.44743609375Q13.375988382720948,5.42579609375,13.543038382720948,5.40065609375C11.874748382720947,1.67350809375,7.103388382720947,0.20257609375000007,3.4303383827209473,2.28305909375Q3.701071382720947,2.3152230937500002,3.9563343827209474,2.35937609375Q4.1905573827209475,2.2450470937500002,4.434678382720947,2.14709209375Z" fill="#989898" fill-opacity="1"/></g></g></g></g></svg>