<svg xmlns="http://www.w3.org/2000/svg" xmlns:xlink="http://www.w3.org/1999/xlink" fill="none" version="1.1" width="16" height="16" viewBox="0 0 16 16"><clipPath id="master_svg0_24_0429"><rect x="0" y="0" width="16" height="16" rx="0"/></clipPath><g clip-path="url(#master_svg0_24_0429)" style="mix-blend-mode:passthrough"><rect x="0" y="0" width="16" height="16" rx="0" fill="#FFFFFF" fill-opacity="1"/><g><g style="mix-blend-mode:passthrough"><ellipse cx="8" cy="8" rx="8" ry="8" fill="#D8D8D8" fill-opacity="0"/><ellipse cx="8" cy="8" rx="7" ry="7" fill-opacity="0" stroke-opacity="1" stroke="#D88A8A" stroke-width="2" fill="none" stroke-dasharray=""/></g><g style="mix-blend-mode:passthrough"><path d="M5.18066,13L7.92285,13C10.77083,13,12.5778,11.3877,12.5778,8.0827C12.5778,4.78613,10.77083,3.25,7.821289999999999,3.25L5.18066,3.25L5.18066,13ZM7.106120000000001,11.4427L7.106120000000001,4.79883L7.6901,4.79883C9.49707,4.79883,10.61426,5.70019,10.61426,8.0827C10.61426,10.4609,9.49707,11.4427,7.6901,11.4427L7.106120000000001,11.4427Z" fill="#D88A8A" fill-opacity="1"/></g></g></g></svg>