<svg xmlns="http://www.w3.org/2000/svg" xmlns:xlink="http://www.w3.org/1999/xlink" fill="none" version="1.1" width="16" height="15.4990234375" viewBox="0 0 16 15.4990234375"><g style="mix-blend-mode:passthrough"><g><path d="M14.1907,1.53206L7.77799,1.53206L6.28423,0L0.746878,0C0.334389,0,0,0.342963,0,0.766029L0,13.0225C0,13.4456,0.334389,13.7885,0.746878,13.7885L7.21734,13.7885C7.01607,13.3181,6.90509,12.8133,6.89483,12.2995C6.8943,12.2748,6.89404,12.2501,6.89404,12.2254C6.89345,11.6817,7.00585,11.1291,7.24358,10.5974Q7.31475,10.4378,7.39872,10.2859C7.39986,10.2916,7.401,10.2973,7.40213,10.303C7.51567,10.0931,7.64681,9.89102,7.79404,9.70031Q7.54744,9.30537,7.11572,9.14812C7.61563,9.05314,8.07051,9.00354,8.48472,8.99071C8.91374,8.64258,9.41569,8.37845,9.97313,8.2402C11.1692,7.87814,12.4484,8.02685,13.4994,8.59032C13.625,8.65292,13.7373,8.72096,13.8425,8.79446C14.2619,9.07015,14.6346,9.41745,14.9376,9.82918L14.9376,2.29809C14.9376,1.87502,14.6032,1.53206,14.1907,1.53206Z" fill-rule="evenodd" fill="#A5A5A5" fill-opacity="1"/></g><g style="mix-blend-mode:passthrough"><g><path d="M15.397690179138184,10.686330064041138C14.344790179138183,11.145827064041137,13.255610179138184,10.913954064041137,12.007460179138183,11.237029064041138C11.010280179138183,11.493788064041137,10.167420179138183,12.134318064041137,9.839690179138184,13.859258064041137C10.393670179138184,13.195048064041139,10.973990179138184,12.733428064041139,11.604570179138184,12.400638064041138C12.207860179138184,12.081968064041138,12.858030179138183,11.878318064041137,13.577400179138184,11.722778064041137C13.655610179138183,11.705938064041138,13.687560179138185,11.811548064041137,13.611610179138182,11.835228064041138C12.673360179138184,12.125518064041138,11.855550179138184,12.490018064041138,11.171980179138183,12.959078064041137C10.444090179138183,13.459698064041138,9.866020179138184,14.083088064041139,9.456390179138184,14.804498064041137C8.039057179138183,13.933498064041139,7.485390179138183,12.228168064041137,8.141922179138184,10.755832064041138C8.148827179138184,10.740657064041137,8.155892179138183,10.725482064041138,8.163119179138183,10.710307064041137Q8.143528179138183,10.592853064041138,8.121369179138183,10.472516164041137C8.119121179138183,10.460376164041138,8.116712179138183,10.448236164041138,8.114303179138183,10.436248064041138Q8.044774179138184,10.562048064041138,7.985843179138183,10.694222064041139C7.213130179138184,12.422268064041138,8.039393179138184,14.417388064041138,9.848020179138183,15.190688064041137C11.656640179138183,15.963988064041137,13.787840179138183,15.233378064041137,14.651170179138184,13.544068064041138Q14.517410179138183,13.624648064041137,14.372580179138183,13.697488064041139C13.412360179138183,15.258488064041138,11.302000179138183,15.798998064041138,9.639130179138183,14.909818064041136C10.736340179138184,13.287918064041138,12.243340179138183,14.327558064041138,13.770260179138184,13.761838064041138C15.177220179138184,13.240118064041138,15.835260179138183,12.141298064041138,15.996160179138183,10.987705064041137C16.00756017913818,10.906974064041137,16.033730179138182,10.408629564041137,15.397690179138184,10.686330064041138Z" fill="#54C024" fill-opacity="1"/></g><g><path d="M8.66340446270752,10.56077453666687C8.81803846270752,11.39827453666687,8.84886846270752,12.11908453666687,8.94167646270752,12.55733453666687C9.00591646270752,12.86189453666687,9.22975646270752,13.321244536666871,9.64002646270752,13.60622453666687C9.98510646270752,11.98023453666687,10.80981646270752,11.36595453666687,11.781136462707519,11.11617453666687C11.98096646270752,11.065144536666871,12.183736462707518,11.02501453666687,12.38843646270752,10.995984536666871L12.38409646270752,10.98961453666687C11.92099646270752,10.32707753666687,10.87934646270752,8.92430753666687,7.8801164627075195,9.49412653666687Q8.50876946270752,9.723115536666871,8.66340446270752,10.56077453666687ZM9.23039646270752,9.67136953666687C9.360846462707519,9.67136953666687,9.466606462707519,9.77130953666687,9.466606462707519,9.89459253666687C9.466606462707519,10.01787453666687,9.360846462707519,10.11781553666687,9.23039646270752,10.11781553666687C9.09994646270752,10.11781553666687,8.99418646270752,10.01787453666687,8.99418646270752,9.89459253666687C8.99418646270752,9.77130953666687,9.09994646270752,9.67136953666687,9.23039646270752,9.67136953666687Z" fill="#EFF43E" fill-opacity="1"/></g><g><path d="M9.997896119430543,9.001528251037598C11.755878119430541,8.301322251037597,13.783128119430543,9.063934251037598,14.551018119430541,10.714323251037598Q14.63820811943054,10.703093251037597,14.72491811943054,10.690043251037597C13.859098119430541,8.755751251037598,11.382888119430541,7.992375251037598,9.476668119430542,9.072092251037597Q9.617172119430542,9.088784251037598,9.749646119430542,9.111698251037598Q9.871202119430542,9.052364251037599,9.997896119430543,9.001528251037598Z" fill="#54C024" fill-opacity="1"/></g></g></g></svg>