<svg xmlns="http://www.w3.org/2000/svg" xmlns:xlink="http://www.w3.org/1999/xlink" fill="none" version="1.1" width="16" height="16" viewBox="0 0 16 16"><defs><clipPath id="master_svg0_34_3741"><rect x="0" y="0" width="16" height="16" rx="0"/></clipPath></defs><g style="mix-blend-mode:passthrough" clip-path="url(#master_svg0_34_3741)"><g style="mix-blend-mode:passthrough"><g><path d="M14.8394,5.365902396972656C12.8106,6.260634396972656,10.7119,5.809129396972656,8.30686,6.438214396972656C6.38543,6.938174396972656,4.76134,8.185414396972657,4.12983,11.544194396972657C5.1973,10.250854396972656,6.3155,9.351984396972657,7.53055,8.703994396972657C8.693,8.083474396972656,9.9458,7.6869343969726565,11.332,7.384064396972656C11.4826,7.351264396972656,11.5442,7.556924396972656,11.3979,7.6030143969726565C9.58998,8.168274396972656,8.01416,8.878034396972655,6.69701,9.791374396972657C5.29445,10.766184396972657,4.18058,11.980024396972656,3.39127,13.384764396972656C0.660238,11.688754396972655,-0.406609,8.368154396972656,0.858448,5.501234396972656C0.871752,5.471686396972657,0.885366,5.4421383969726564,0.89929,5.412589396972656Q0.861542,5.1838843969726565,0.818843,4.949565196972657C0.814512,4.925926296972656,0.809871,4.902287496972656,0.805229,4.878944396972656Q0.671255,5.123901396972657,0.557702,5.381268396972656C-0.931221,8.746104396972656,0.660886,12.630984396972657,4.14588,14.136744396972656C7.63088,15.642544396972657,11.7374,14.219854396972655,13.401,10.930474396972656Q13.1432,11.087374396972656,12.8642,11.229204396972655C11.0139,14.268764396972657,6.94754,15.321244396972656,3.74338,13.589834396972655C5.85758,10.431694396972656,8.76138,12.456054396972657,11.7036,11.354484396972655C14.4146,10.338614396972655,15.6826,8.199004396972656,15.9926,5.952734396972656C16.0146,5.795537396972656,16.065,4.825165996972657,14.8394,5.365902396972656Z" fill="#54C024" fill-opacity="1"/></g><g><path d="M1.8637921875,5.121454529762268C2.1617521875000003,6.7522345297622675,2.2211621875,8.155784529762268,2.4000021875,9.009144529762267C2.5237621875,9.602184529762269,2.9550821875,10.496614529762269,3.7456221875,11.051534529762268C4.4105421875,7.885414529762268,5.9996621875,6.689294529762268,7.8712821875,6.202934529762269C8.2563321875,6.103564529762268,8.6470321875,6.025424529762268,9.0414721875,5.968904529762268L9.0331221875,5.956494529762268C8.140782187500001,4.666414529762268,6.1336421875,1.934950529762268,0.3544921875,3.0444955297622682Q1.5658321875,3.490381529762268,1.8637921875,5.121454529762268ZM2.9563121875,3.389621529762268C3.2076821875,3.389621529762268,3.4114521875,3.584223529762268,3.4114521875,3.824274529762268C3.4114521875,4.064334529762268,3.2076821875,4.258934529762268,2.9563121875,4.258934529762268C2.7049521875,4.258934529762268,2.5011721875,4.064334529762268,2.5011721875,3.824274529762268C2.5011721875,3.584223529762268,2.7049521875,3.389621529762268,2.9563121875,3.389621529762268Z" fill="#EFF43E" fill-opacity="1"/></g><g><path d="M4.4346788595581055,2.08535559375C7.822098859558105,0.72192159375,11.728368859558106,2.20687259375,13.207988859558105,5.42049359375Q13.375998859558106,5.39862359375,13.543038859558106,5.37321359375C11.874748859558105,1.60677959375,7.103388859558105,0.12034359374999992,3.4303388595581055,2.22275659375Q3.7010718595581054,2.25525959375,3.9563348595581056,2.29987359375Q4.190557859558106,2.18434359375,4.4346788595581055,2.08535559375Z" fill="#54C024" fill-opacity="1"/></g></g></g></svg>