<svg xmlns="http://www.w3.org/2000/svg" xmlns:xlink="http://www.w3.org/1999/xlink" fill="none" version="1.1" width="20" height="16.84228515625" viewBox="0 0 20 16.84228515625"><g style="mix-blend-mode:passthrough"><g><path d="M18.5493,5.128398004028321C16.0133,6.24681100402832,13.3899,5.68243100402832,10.3836,6.46879100402832C7.98178,7.09374100402832,5.95167,8.65279100402832,5.16229,12.85126100402832C6.49662,11.23459100402832,7.89438,10.11101100402832,9.41319,9.301011004028322C10.8663,8.52536100402832,12.4323,8.02969100402832,14.1649,7.6511010040283205C14.3533,7.61010100402832,14.4303,7.86717100402832,14.2473,7.92479100402832C11.9875,8.63137100402832,10.0177,9.51856100402832,8.37126,10.66024100402832C6.61806,11.87875100402832,5.22572,13.39606100402832,4.23909,15.152001004028321C0.825297,13.03196100402832,-0.508261,8.88121100402832,1.07306,5.29756400402832C1.08969,5.26062800402832,1.10671,5.22369300402832,1.12411,5.18675700402832Q1.07693,4.90087600402832,1.02355,4.60797700402832C1.01814,4.578428404028321,1.01234,4.54887990402832,1.00654,4.51970100402832Q0.839069,4.82589700402832,0.697127,5.1476060040283205C-1.16403,9.35365100402832,0.826107,14.20975100402832,5.18235,16.09200100402832C9.5386,17.97420100402832,14.6718,16.19580100402832,16.7512,12.084111004028319Q16.429,12.28023100402832,16.0802,12.45752100402832C13.7674,16.257001004028318,8.68442,17.57260100402832,4.67923,15.40830100402832C7.32197,11.46063100402832,10.9517,13.99109100402832,14.6294,12.61413100402832C18.0183,11.344281004028321,19.6032,8.66978100402832,19.9907,5.861941004028321C20.0182,5.66544100402832,20.0812,4.45247800402832,18.5493,5.128398004028321Z" fill="#54C024" fill-opacity="1"/></g><g><path d="M2.3297352343749997,4.822846140213013C2.702195234375,6.861316140213012,2.776445234375,8.615756140213012,2.999995234375,9.682456140213013C3.154705234375,10.423746140213012,3.693845234375,11.541796140213012,4.682025234375,12.235426140213013C5.513175234375,8.277796140213013,7.499585234375,6.7826461402130125,9.839105234375,6.174686140213013C10.320405234375,6.0504761402130125,10.808815234375,5.952806140213013,11.301815234375,5.882156140213013L11.291415234375,5.866646140213012C10.175975234375,4.254036140213013,7.667055234375,0.8397061402130126,0.443115234375,2.226639140213013Q1.957285234375,2.7839971402130126,2.3297352343749997,4.822846140213013ZM3.695395234375,2.6580471402130126C4.009605234375,2.6580471402130126,4.264325234375001,2.9013001402130127,4.264325234375001,3.201366140213013C4.264325234375001,3.5014361402130127,4.009605234375,3.744696140213013,3.695395234375,3.744696140213013C3.381185234375,3.744696140213013,3.126465234375,3.5014361402130127,3.126465234375,3.201366140213013C3.126465234375,2.9013001402130127,3.381185234375,2.6580471402130126,3.695395234375,2.6580471402130126Z" fill="#EFF43E" fill-opacity="1"/></g><g><path d="M5.543353812866211,1.02772C9.77762381286621,-0.676578,14.660423812866211,1.17961,16.51002381286621,5.19663Q16.72002381286621,5.1693,16.928823812866213,5.13754C14.843423812866211,0.429495,8.87924381286621,-1.42855,4.287923812866211,1.19947Q4.626340812866211,1.2401,4.945418812866211,1.29587Q5.238197812866211,1.15145,5.543353812866211,1.02772Z" fill="#54C024" fill-opacity="1"/></g></g></svg>