<svg xmlns="http://www.w3.org/2000/svg" fill="none" version="1.1" width="13"
     height="13" viewBox="0 0 13 13">
    <defs>
        <clipPath id="master_svg0_34_3407">
            <rect x="0" y="0" width="13" height="13" rx="0"/>
        </clipPath>
    </defs>
    <g style="mix-blend-mode:passthrough" clip-path="url(#master_svg0_34_3407)">
        <g style="mix-blend-mode:passthrough">
            <g>
                <path d="M12.057,4.359825601699829C10.4086,5.086792601699829,8.70342,4.719947601699829,6.74932,5.231082601699829C5.18816,5.6373026016998296,3.86859,6.650682601699829,3.35549,9.37968260169983C4.2228,8.328852601699829,5.13134,7.598522601699829,6.11857,7.072022601699829C7.06307,6.56785260169983,8.08096,6.245662601699829,9.20721,5.99958260169983C9.32964,5.97293260169983,9.37967,6.140032601699829,9.26076,6.177482601699829C7.79186,6.636752601699829,6.5115,7.213432601699829,5.44132,7.95552260169983C4.30174,8.74755260169983,3.39672,9.733802601699828,2.75541,10.87515260169983C0.536443,9.497142601699828,-0.33037,6.799152601699829,0.697489,4.469783601699829C0.708299,4.445775601699829,0.71936,4.421767601699829,0.730673,4.397759601699829Q0.700003,4.211936601699829,0.66531,4.021552001699829C0.661791,4.002345401699829,0.65802,3.9831389016998293,0.654249,3.964172601699829Q0.545395,4.163199601699829,0.453133,4.372310601699829C-0.756617,7.1062426016998295,0.53697,10.262702601699829,3.36853,11.486132601699829C6.20009,12.70957260169983,9.53667,11.553662601699829,10.8883,8.881032601699829Q10.6789,9.008522601699829,10.4521,9.123762601699829C8.94882,11.593402601699829,5.64487,12.448522601699828,3.0415,11.04176260169983C4.75928,8.47578260169983,7.11862,10.120572601699829,9.50914,9.225552601699828C11.7119,8.40015260169983,12.7421,6.661722601699829,12.994,4.8366276016998295C13.0118,4.708904601699829,13.0528,3.920477601699829,12.057,4.359825601699829Z"
                      fill="#54C024" fill-opacity="1"/>
            </g>
            <g>
                <path d="M1.5143348725414276,4.161209071350098C1.7564248725414275,5.486219071350098,1.8046948725414276,6.626609071350098,1.9499948725414276,7.319959071350097C2.0505548725414275,7.801809071350098,2.4010048725414275,8.528529071350098,3.0433148725414276,8.979399071350098C3.5835648725414275,6.406929071350097,4.874724872541428,5.435089071350097,6.395414872541427,5.039909071350097C6.708264872541427,4.959179071350098,7.025714872541427,4.895689071350098,7.346194872541427,4.849769071350098L7.339404872541428,4.839679071350098C6.614384872541428,3.7914890713500977,4.983584872541428,1.5721780713500977,0.2880248725414276,2.4736830713500977Q1.2722368725414275,2.8359650713500977,1.5143348725414276,4.161209071350098ZM2.402004872541428,2.7540970713500976C2.606244872541428,2.7540970713500976,2.7718048725414275,2.9122120713500976,2.7718048725414275,3.1072570713500975C2.7718048725414275,3.302299071350098,2.606244872541428,3.4604190713500977,2.402004872541428,3.4604190713500977C2.1977748725414274,3.4604190713500977,2.0322048725414277,3.302299071350098,2.0322048725414277,3.1072570713500975C2.0322048725414277,2.9122120713500976,2.1977748725414274,2.7540980713500978,2.402004872541428,2.7540970713500976Z"
                      fill="#EFF43E" fill-opacity="1"/>
            </g>
            <g>
                <path d="M3.6031779061584475,1.6943821875C6.355459906158448,0.5865921875,9.529299906158446,1.7931141875,10.731489906158448,4.4041771875Q10.867989906158448,4.3864171875,11.003749906158447,4.3657671874999995C9.648229906158448,1.3055391875,5.771509906158448,0.0978091875,2.7871499061584473,1.8060201875000002Q3.0071209061584474,1.8324291874999998,3.2145219061584474,1.8686811875Q3.404827906158447,1.7748091875,3.6031779061584475,1.6943821875Z"
                      fill="#54C024" fill-opacity="1"/>
            </g>
        </g>
    </g>
</svg>