<svg xmlns="http://www.w3.org/2000/svg" xmlns:xlink="http://www.w3.org/1999/xlink" fill="none" version="1.1" width="13" height="10.947265625" viewBox="0 0 13 10.947265625"><g style="mix-blend-mode:passthrough"><g><path d="M12.057,3.333458414199829C10.4086,4.060425414199829,8.70342,3.693580414199829,6.74932,4.204715414199829C5.18816,4.6109354141998296,3.86859,5.624315414199829,3.35549,8.35331541419983C4.2228,7.302485414199829,5.13134,6.572155414199829,6.11857,6.045655414199829C7.06307,5.54148541419983,8.08096,5.219295414199829,9.20721,4.97321541419983C9.32964,4.94656541419983,9.37967,5.113665414199829,9.26076,5.151115414199829C7.79186,5.610385414199829,6.5115,6.187065414199829,5.44132,6.92915541419983C4.30174,7.721185414199829,3.39672,8.707435414199828,2.75541,9.84878541419983C0.536443,8.470775414199828,-0.33037,5.772785414199829,0.697489,3.443416414199829C0.708299,3.419408414199829,0.71936,3.395400414199829,0.730673,3.3713924141998293Q0.700003,3.185569414199829,0.66531,2.995184814199829C0.661791,2.975978214199829,0.65802,2.9567717141998293,0.654249,2.937805414199829Q0.545395,3.136832414199829,0.453133,3.345943414199829C-0.756617,6.0798754141998295,0.53697,9.236335414199829,3.36853,10.459765414199829C6.20009,11.68320541419983,9.53667,10.527295414199829,10.8883,7.854665414199829Q10.6789,7.982155414199829,10.4521,8.097395414199829C8.94882,10.567035414199829,5.64487,11.422155414199828,3.0415,10.01539541419983C4.75928,7.449415414199829,7.11862,9.094205414199829,9.50914,8.199185414199828C11.7119,7.373785414199829,12.7421,5.635355414199829,12.994,3.810260414199829C13.0118,3.682537414199829,13.0528,2.894110414199829,12.057,3.333458414199829Z" fill="#787878" fill-opacity="1"/></g><g><path d="M1.5143348725414276,3.1348418838500978C1.7564248725414275,4.459851883850098,1.8046948725414276,5.600241883850098,1.9499948725414276,6.293591883850097C2.0505548725414275,6.775441883850098,2.4010048725414275,7.502161883850098,3.0433148725414276,7.953031883850097C3.5835648725414275,5.380561883850097,4.874724872541428,4.408721883850097,6.395414872541427,4.013541883850097C6.708264872541427,3.9328118838500976,7.025714872541427,3.869321883850098,7.346194872541427,3.8234018838500976L7.339404872541428,3.8133118838500977C6.614384872541428,2.7651218838500977,4.983584872541428,0.5458108838500977,0.2880248725414276,1.4473158838500977Q1.2722368725414275,1.8095978838500977,1.5143348725414276,3.1348418838500978ZM2.402004872541428,1.7277298838500976C2.606244872541428,1.7277298838500976,2.7718048725414275,1.8858448838500976,2.7718048725414275,2.0808898838500975C2.7718048725414275,2.275931883850098,2.606244872541428,2.4340518838500977,2.402004872541428,2.4340518838500977C2.1977748725414274,2.4340518838500977,2.0322048725414277,2.275931883850098,2.0322048725414277,2.0808898838500975C2.0322048725414277,1.8858448838500976,2.1977748725414274,1.7277308838500978,2.402004872541428,1.7277298838500976Z" fill="#ADADAD" fill-opacity="1"/></g><g><path d="M3.6031779061584475,0.668015C6.355459906158448,-0.439775,9.529299906158446,0.766747,10.731489906158448,3.37781Q10.867989906158448,3.36005,11.003749906158447,3.3394C9.648229906158448,0.279172,5.771509906158448,-0.928558,2.7871499061584473,0.779653Q3.0071209061584474,0.806062,3.2145219061584474,0.842314Q3.404827906158447,0.748442,3.6031779061584475,0.668015Z" fill="#787878" fill-opacity="1"/></g></g></svg>