<svg xmlns="http://www.w3.org/2000/svg" fill="none" version="1.1" width="18"
     height="18" viewBox="0 0 18 18">
    <defs>
        <clipPath id="master_svg0_34_3804">
            <rect x="0" y="0" width="18" height="18" rx="0"/>
        </clipPath>
    </defs>
    <g style="mix-blend-mode:passthrough" clip-path="url(#master_svg0_34_3804)">
        <g style="mix-blend-mode:passthrough">
            <g>
                <path d="M16.6944,6.03659753125C14.4119,7.04316953125,12.0509,6.53522953125,9.34522,7.24294953125C7.18361,7.80540953125,5.3565,9.20854953125,4.64606,12.98716953125C5.84696,11.53216953125,7.10494,10.52094953125,8.47187,9.791949531250001C9.77963,9.09386953125,11.189,8.64775953125,12.7485,8.30702953125C12.918,8.27012953125,12.9872,8.50148953125,12.8226,8.55334953125C10.7887,9.18926953125,9.01593,9.98774953125,7.53413,11.015259531249999C5.95626,12.11190953125,4.70315,13.47748953125,3.81518,15.05781953125C0.742768,13.14980953125,-0.457435,9.41412953125,0.965754,6.18884653125C0.980721,6.15560453125,0.996037,6.12236253125,1.0117,6.08912053125Q0.969235,5.83182653125,0.921199,5.56821793125C0.916326,5.54162423125,0.911104,5.51503053125,0.905883,5.48876953125Q0.755162,5.76434553125,0.627414,6.05388353125C-1.04762,9.83931953125,0.743497,14.20980953125,4.66412,15.90376953125C8.58474,17.59776953125,13.2046,15.99726953125,15.0761,12.296739531250001Q14.7861,12.47324953125,14.4722,12.63280953125C12.3907,16.05236953125,7.81598,17.23636953125,4.2113,15.28851953125C6.58977,11.735609531249999,9.85656,14.01301953125,13.1665,12.77375953125C16.2164,11.63089953125,17.6429,9.22383953125,17.9917,6.69677953125C18.0164,6.5199395312499995,18.0731,5.42826883125,16.6944,6.03659753125Z"
                      fill="#54C024" fill-opacity="1"/>
            </g>
            <g>
                <path d="M2.0963975,5.76158078125C2.4316075,7.59621078125,2.4984375,9.17521078125,2.6996275,10.135240781250001C2.8388675,10.80240078125,3.3240975,11.80864078125,4.2134575000000005,12.43293078125C4.9614875,8.871040781249999,6.7492575,7.52541078125,8.8548275,6.978240781249999C9.2879975,6.86646078125,9.7275475,6.77855078125,10.1712875,6.714960781249999L10.1618875,6.70100078125C9.1580075,5.24966078125,6.8999775,2.17676478125,0.3984375,3.42500278125Q1.7611975,3.92662478125,2.0963975,5.76158078125ZM3.3254875,3.81326978125C3.6082775,3.81326978125,3.8375275,4.03219778125,3.8375275,4.30226078125C3.8375275,4.57232078125,3.6082775,4.79125078125,3.3254875,4.79125078125C3.0426975,4.79125078125,2.8134575,4.57232078125,2.8134575,4.30226078125C2.8134575,4.03219778125,3.0426975,3.81326978125,3.3254875,3.81326978125Z"
                      fill="#EFF43E" fill-opacity="1"/>
            </g>
            <g>
                <path d="M4.989265,2.3458424375C8.800105,0.8119784375,13.194655,2.4825484375,14.859275,6.0978684375Q15.048275,6.0732684375,15.236175,6.0446784375C13.359335,1.8074444375,7.991555,0.13519843749999993,3.859375,2.5004184375Q4.16395,2.5369884375,4.4511199999999995,2.5871784375Q4.714621,2.4571984374999998,4.989265,2.3458424375Z"
                      fill="#54C024" fill-opacity="1"/>
            </g>
        </g>
    </g>
</svg>