<svg xmlns="http://www.w3.org/2000/svg" xmlns:xlink="http://www.w3.org/1999/xlink" fill="none" version="1.1" width="18.91015625" height="18.317626953125" viewBox="0 0 18.91015625 18.317626953125"><g style="mix-blend-mode:passthrough"><g><path d="M16.7716,1.8107L9.19261,1.8107L7.42717,0L0.882716,0C0.395205,0,0,0.405339,0,0.90535L0,15.3909C0,15.891,0.395205,16.2963,0.882716,16.2963L8.5441,16.2963C8.28731,15.701,8.14795,15.0679,8.14795,14.4491L8.14795,14.4466C8.14755,13.8046,8.28042,13.1523,8.56106,12.5247Q8.64517,12.3361,8.74442,12.1565C8.74578,12.1633,8.74714,12.1701,8.74848,12.1769C8.88272,11.9288,9.03774,11.6899,9.21182,11.4645Q8.92036,10.9977,8.41016,10.8119C9.00099,10.6996,9.5386,10.641,10.0282,10.6259C10.5348,10.2148,11.1275,9.90285,11.7856,9.73938C13.2013,9.31039,14.7156,9.48693,15.9591,10.155C16.104,10.2276,16.234,10.3062,16.3559,10.3911C16.8532,10.7173,17.2953,11.1287,17.6543,11.6167L17.6543,2.71605C17.6543,2.21604,17.2591,1.8107,16.7716,1.8107Z" fill-rule="evenodd" fill="#9B9B9B" fill-opacity="1"/></g><g style="mix-blend-mode:passthrough"><g><path d="M18.198141406250002,12.629902042404176C16.95375140625,13.172970042404176,15.66647140625,12.898925042404175,14.19131140625,13.280758042404175C13.01277140625,13.584216042404176,12.01662140625,14.341246042404174,11.62927140625,16.379906042404173C12.28402140625,15.594896042404175,12.96988140625,15.049316042404175,13.715151406250001,14.656006042404176C14.428151406249999,14.279376042404175,15.196571406250001,14.038686042404175,16.04679140625,13.854856042404174C16.13921140625,13.834946042404175,16.17698140625,13.959776042404174,16.08721140625,13.987746042404176C14.97833140625,14.330846042404175,14.01178140625,14.761636042404174,13.20388140625,15.316006042404174C12.34361140625,15.907676042404175,11.66040140625,16.644446042404176,11.17627140625,17.497066042404175C9.50115640625,16.467646042404176,8.84679240625,14.452156042404175,9.62273140625,12.712044042404175C9.63089140625,12.694109042404175,9.63924240625,12.676174042404174,9.64778240625,12.658240042404175Q9.62462940625,12.519424042404175,9.59843940625,12.377200342404175C9.59578240625,12.362852442404176,9.59293540625,12.348504442404176,9.59008840625,12.334336042404175Q9.50791440625,12.483016042404175,9.43826440625,12.639229042404175C8.52501540625,14.681566042404175,9.50155440625,17.039546042404176,11.63912140625,17.953496042404176C13.77669140625,18.867436042404176,16.29550140625,18.003936042404174,17.315851406249998,16.007396042404174Q17.15776140625,16.102626042404175,16.98658140625,16.188716042404174C15.85173140625,18.033626042404176,13.35755140625,18.672426042404176,11.392241406250001,17.621536042404173C12.68901140625,15.704656042404174,14.470091406249999,16.933376042404173,16.27471140625,16.264756042404173C17.93757140625,15.648156042404175,18.71529140625,14.349496042404175,18.905451406250002,12.986089042404174C18.91892140625,12.890675042404174,18.94986140625,12.301694442404175,18.198141406250002,12.629902042404176Z" fill="#54C024" fill-opacity="1"/></g><g><path d="M10.239057162855149,12.48150580121994C10.421819162855149,13.47133580121994,10.458249162855148,14.32323580121994,10.567949162855149,14.84119580121994C10.643859162855149,15.20114580121994,10.908409162855149,15.74403580121994,11.393299162855149,16.08085580121994C11.801139162855149,14.15913580121994,12.775849162855149,13.43313580121994,13.92382916285515,13.13792580121994C14.159999162855147,13.07761580121994,14.399639162855149,13.03018580121994,14.641579162855148,12.99587580121994L14.636449162855149,12.98834580121994C14.089129162855148,12.20530580121994,12.858019162855149,10.54741180121994,9.313309162855148,11.22086580121994Q10.056298162855148,11.49150280121994,10.239057162855149,12.48150580121994ZM10.909169162855148,11.43034480121994C11.063349162855149,11.43034480121994,11.188339162855149,11.54846180121994,11.188339162855149,11.69416680121994C11.188339162855149,11.83987180121994,11.063349162855149,11.95798880121994,10.909169162855148,11.95798880121994C10.754989162855148,11.95798880121994,10.629999162855148,11.83987180121994,10.629999162855148,11.69416680121994C10.629999162855148,11.54846180121994,10.754989162855148,11.43034480121994,10.909169162855148,11.43034480121994Z" fill="#EFF43E" fill-opacity="1"/></g><g><path d="M11.816258744216919,10.6386774375C13.893972744216919,9.8111214375,16.28993274421692,10.7124334375,17.197472744216917,12.662988437500001Q17.30052274421692,12.649718437499999,17.40300274421692,12.6342884375C16.379712744216917,10.3481994375,13.453142744216919,9.4459844375,11.200232744216919,10.7220744375Q11.366290744216919,10.7418034375,11.522858744216919,10.7688844375Q11.66652274421692,10.6987594375,11.816258744216919,10.6386774375Z" fill="#54C024" fill-opacity="1"/></g></g></g></svg>