<svg xmlns="http://www.w3.org/2000/svg" xmlns:xlink="http://www.w3.org/1999/xlink" fill="none" version="1.1" width="14.727272987365723" height="14.272619247436523" viewBox="0 0 14.727272987365723 14.272619247436523"><g style="mix-blend-mode:passthrough"><g><path d="M6.7691,1.33333L12.35,1.33333C12.709,1.33333,13,1.63181,13,2L13,11.3333C13,11.7015,12.709,12,12.35,12L0.65,12C0.291015,12,0,11.7015,0,11.3333L0,0.666667C0,0.298477,0.291015,0,0.65,0L5.4691,0L6.7691,1.33333Z" fill="#CED6DC" fill-opacity="1"/><path d="M6.7691,1.33333L5.4691,0L0.65,0C0.291015,0,0,0.298477,0,0.666667L0,11.3333C0,11.7015,0.291015,12,0.65,12L12.35,12C12.709,12,13,11.7015,13,11.3333L13,2C13,1.63181,12.709,1.33333,12.35,1.33333L6.7691,1.33333ZM5.04745,1L1,1L1,11L12,11L12,2.33333L6.34745,2.33333L5.04745,1Z" fill-rule="evenodd" fill="#EEEEEE" fill-opacity="1"/><g style="mix-blend-mode:passthrough"><g><path d="M14.09423,9.21450315625C12.98761,9.69744515625,11.84285,9.45374115625,10.53101,9.79330015625C9.48296,10.06316015625,8.59709,10.73638015625,8.25264,12.54932015625C8.83489,11.85123015625,9.44482,11.366050156250001,10.107569999999999,11.016290156250001C10.74164,10.68135015625,11.42498,10.46731015625,12.18107,10.303830156250001C12.263259999999999,10.28613015625,12.29684,10.39714015625,12.21701,10.42202015625C11.2309,10.72713015625,10.37136,11.110230156250001,9.65291,11.60322015625C8.88788,12.12938015625,8.28031,12.78458015625,7.8497900000000005,13.54280015625C6.36013,12.62735015625,5.778213,10.83501015625,6.468244,9.28755015625C6.475501,9.27160115625,6.482927,9.25565215625,6.490522,9.23970315625Q6.469932,9.11625615625,6.446642,8.98977875625C6.444279,8.97701935625,6.441748,8.96425995625,6.439216,8.95166015625Q6.366139,9.08387915625,6.304201,9.22279715625C5.492062,11.03902015625,6.360483,13.135940156250001,8.26139,13.94870015625C10.1623,14.76145015625,12.402239999999999,13.99356015625,13.309619999999999,12.21806015625Q13.169039999999999,12.30275015625,13.01681,12.37931015625C12.0076,14.01996015625,9.78956,14.588040156249999,8.04184,13.653490156250001C9.19504,11.94884015625,10.77894,13.04152015625,12.383759999999999,12.44693015625C13.86251,11.89860015625,14.55412,10.74371015625,14.72323,9.53125415625C14.73521,9.44640415625,14.76272,8.92263245625,14.09423,9.21450315625Z" fill="#54C024" fill-opacity="1"/><path d="M7.016613375,9.082563203125C7.179137375,9.962793203124999,7.211539375,10.720383203125,7.309089375,11.180993203125C7.376599375,11.501103203125,7.611859375,11.983883203125,8.043069375,12.283403203125001C8.405749375,10.574453203125,9.272549375,9.928823203124999,10.293429374999999,9.666303203125C10.503449374999999,9.612663203125,10.716559375,9.570493203125,10.931709375,9.539983203125L10.927159374999999,9.533283203125C10.440429375,8.836943203125,9.345619375,7.362596203125,6.193359375,7.961489203125Q6.854089375,8.202163203125,7.016613375,9.082563203125ZM7.612539375,8.147776203125C7.749649375,8.147776203125,7.860799375,8.252815203125,7.860799375,8.382389203125C7.860799375,8.511962203125,7.749649375,8.617002203125,7.612539375,8.617002203125C7.475429375,8.617002203125,7.364279375,8.511962203125,7.364279375,8.382389203125C7.364279375,8.252815203125,7.475429375,8.147776203125,7.612539375,8.147776203125Z" fill="#EFF43E" fill-opacity="1"/><path d="M8.41891675,7.44378C10.26660375,6.707846,12.39729375,7.50937,13.20435375,9.243970000000001Q13.295993750000001,9.23216,13.38713375,9.21845C12.47713375,7.185461,9.87457375,6.383135,7.87109375,7.517943Q8.01876675,7.535488,8.15800075,7.559571Q8.28575875,7.497209,8.41891675,7.44378Z" fill="#54C024" fill-opacity="1"/></g></g></g></g></svg>