<svg xmlns="http://www.w3.org/2000/svg" xmlns:xlink="http://www.w3.org/1999/xlink" fill="none" version="1.1" width="13" height="13" viewBox="0 0 13 13"><defs><clipPath id="master_svg0_34_3473"><rect x="0" y="0" width="13" height="13" rx="0"/></clipPath></defs><g style="mix-blend-mode:passthrough" clip-path="url(#master_svg0_34_3473)"><g style="mix-blend-mode:passthrough"><g style="mix-blend-mode:passthrough"><g><path d="M12.057,4.382173554397583C10.4086,5.1015575543975835,8.70342,4.738538554397583,6.74932,5.244337554397583C5.18816,5.646317554397583,3.86859,6.649127554397583,3.35549,9.349667554397584C4.2228,8.309797554397583,5.13135,7.587087554397582,6.11857,7.066077554397583C7.06307,6.567167554397583,8.08096,6.248337554397583,9.20721,6.004827554397583C9.32964,5.978447554397583,9.37967,6.143807554397583,9.26076,6.180867554397583C7.79186,6.635357554397583,6.5115,7.206017554397583,5.44132,7.940367554397583C4.30174,8.724127554397583,3.39672,9.700097554397583,2.75541,10.829537554397582C0.536443,9.465897554397582,-0.33037,6.796057554397583,0.697489,4.490984554397583C0.708299,4.467226554397583,0.71936,4.443468554397583,0.730673,4.419711554397583Q0.700003,4.235826554397583,0.66531,4.047428454397583C0.661791,4.028422154397583,0.65802,4.009415954397583,0.654249,3.990647554397583Q0.545395,4.187598554397583,0.453133,4.394528554397583C-0.756617,7.099937554397583,0.53697,10.223477554397583,3.36853,11.434147554397583C6.20009,12.644817554397584,9.53667,11.500967554397583,10.8883,8.856217554397583Q10.6789,8.982377554397583,10.4521,9.096407554397583C8.94882,11.540297554397583,5.64487,12.386497554397582,3.0415,10.994417554397582C4.75928,8.455187554397583,7.11862,10.082827554397582,9.50914,9.197147554397583C11.7119,8.380357554397584,12.7421,6.660057554397583,12.994,4.854001554397583C13.0118,4.727610554397583,13.0528,3.947408354397583,12.057,4.382173554397583Z" fill="#797979" fill-opacity="1"/></g><g><path d="M1.5141706021404266,4.185453804397583C1.7562606021404266,5.496643804397583,1.8045306021404266,6.625133804397583,1.9498306021404266,7.311253804397583C2.0503906021404266,7.788073804397583,2.4008406021404265,8.507213804397583,3.0431506021404267,8.953383804397582C3.5834006021404265,6.407753804397583,4.874560602140427,5.446043804397583,6.395250602140426,5.054993804397583C6.708100602140426,4.9750938043975825,7.025550602140426,4.912273804397583,7.346030602140426,4.866823804397583L7.339240602140427,4.856853804397582C6.614220602140427,3.819593804397583,4.983420602140427,1.6234288043975829,0.28786060214042664,2.515529804397583Q1.2720726021404265,2.874032804397583,1.5141706021404266,4.185453804397583ZM2.401840602140427,2.793019804397583C2.606080602140427,2.793019804397583,2.7716406021404265,2.949484804397583,2.7716406021404265,3.142494804397583C2.7716406021404265,3.3355038043975833,2.606080602140427,3.491973804397583,2.401840602140427,3.491973804397583C2.1976106021404265,3.491973804397583,2.0320406021404267,3.3355038043975833,2.0320406021404267,3.142494804397583C2.0320406021404267,2.949484804397583,2.1976106021404265,2.793019804397583,2.401840602140427,2.793019804397583Z" fill="#A2A2A2" fill-opacity="1"/></g><g><path d="M3.6032878171234133,1.74454309375C6.355569817123413,0.64830809375,9.529409817123412,1.84224509375,10.731599817123413,4.42607609375Q10.868099817123413,4.40849609375,11.003859817123413,4.38805609375C9.648339817123414,1.35975609375,5.771619817123414,0.16462409374999998,2.787259817123413,1.85501609375Q3.0072308171234132,1.88114909375,3.214631817123413,1.91702409375Q3.404937817123413,1.8241310937500002,3.6032878171234133,1.74454309375Z" fill="#797979" fill-opacity="1"/></g></g></g></g></svg>