<svg xmlns="http://www.w3.org/2000/svg" xmlns:xlink="http://www.w3.org/1999/xlink" fill="none" version="1.1" width="16" height="16" viewBox="0 0 16 16"><clipPath id="master_svg0_24_1563"><rect x="0" y="0" width="16" height="16" rx="0"/></clipPath><clipPath id="master_svg1_24_028"><rect x="-4" y="-2" width="29" height="28" rx="0"/></clipPath><g clip-path="url(#master_svg0_24_1563)" style="mix-blend-mode:passthrough"><g><g clip-path="url(#master_svg1_24_028)"><rect x="-4" y="-2" width="29" height="28" rx="0" fill="#FFFFFF" fill-opacity="1"/></g><g style="mix-blend-mode:passthrough"><g><g style="opacity:0.4000000059604645;"><path d="M7.7691,2.33333L13.35,2.33333C13.709,2.33333,14,2.6318099999999998,14,3L14,12.3333C14,12.7015,13.709,13,13.35,13L1.65,13C1.291015,13,1,12.7015,1,12.3333L1,1.666667C1,1.298477,1.291015,1,1.65,1L6.4691,1L7.7691,2.33333Z" fill="#193E5A" fill-opacity="0.49000000953674316"/><path d="M7.7691,2.33333L6.4691,1L1.65,1C1.291015,1,1,1.298477,1,1.666667L1,12.3333C1,12.7015,1.291015,13,1.65,13L13.35,13C13.709,13,14,12.7015,14,12.3333L14,3C14,2.6318099999999998,13.709,2.33333,13.35,2.33333L7.7691,2.33333ZM6.04745,2L2,2L2,12L13,12L13,3.33333L7.34745,3.33333L6.04745,2Z" fill-rule="evenodd" fill="#EEEEEE" fill-opacity="1"/></g><g style="mix-blend-mode:passthrough"><g><path d="M15.09423,10.21450315625C13.98761,10.69744515625,12.84285,10.45374115625,11.53101,10.79330015625C10.48296,11.06316015625,9.59709,11.73638015625,9.25264,13.54932015625C9.83489,12.85123015625,10.44482,12.366050156250001,11.107569999999999,12.016290156250001C11.74164,11.68135015625,12.42498,11.46731015625,13.18107,11.303830156250001C13.263259999999999,11.28613015625,13.29684,11.39714015625,13.21701,11.42202015625C12.2309,11.72713015625,11.37136,12.110230156250001,10.65291,12.60322015625C9.88788,13.12938015625,9.28031,13.78458015625,8.84979,14.54280015625C7.36013,13.62735015625,6.778213,11.83501015625,7.468244,10.28755015625C7.475501,10.27160115625,7.482927,10.25565215625,7.490522,10.23970315625Q7.469932,10.11625615625,7.446642,9.98977875625C7.444279,9.97701935625,7.441748,9.96425995625,7.439216,9.95166015625Q7.366139,10.08387915625,7.304201,10.22279715625C6.492062,12.03902015625,7.360483,14.135940156250001,9.26139,14.94870015625C11.1623,15.76145015625,13.402239999999999,14.99356015625,14.309619999999999,13.21806015625Q14.169039999999999,13.30275015625,14.01681,13.37931015625C13.0076,15.01996015625,10.78956,15.588040156249999,9.04184,14.653490156250001C10.19504,12.94884015625,11.77894,14.04152015625,13.383759999999999,13.44693015625C14.86251,12.89860015625,15.55412,11.74371015625,15.72323,10.53125415625C15.73521,10.44640415625,15.76272,9.92263245625,15.09423,10.21450315625Z" fill="#54C024" fill-opacity="1"/><path d="M8.016613375,10.082563203125C8.179137375,10.962793203124999,8.211539375000001,11.720383203125,8.309089375,12.180993203125C8.376599375,12.501103203125,8.611859375,12.983883203125,9.043069375,13.283403203125001C9.405749375,11.574453203125,10.272549375,10.928823203124999,11.293429374999999,10.666303203125C11.503449374999999,10.612663203125,11.716559375,10.570493203125,11.931709375,10.539983203125L11.927159374999999,10.533283203125C11.440429375,9.836943203125,10.345619375,8.362596203125,7.193359375,8.961489203125Q7.854089375,9.202163203125,8.016613375,10.082563203125ZM8.612539375,9.147776203125C8.749649375,9.147776203125,8.860799375,9.252815203125,8.860799375,9.382389203125C8.860799375,9.511962203125,8.749649375,9.617002203125,8.612539375,9.617002203125C8.475429375000001,9.617002203125,8.364279375,9.511962203125,8.364279375,9.382389203125C8.364279375,9.252815203125,8.475429375000001,9.147776203125,8.612539375,9.147776203125Z" fill="#EFF43E" fill-opacity="1"/><path d="M9.41891675,8.44378C11.26660375,7.707846,13.39729375,8.50937,14.20435375,10.243970000000001Q14.295993750000001,10.23216,14.38713375,10.21845C13.47713375,8.185461,10.87457375,7.383135,8.87109375,8.517943Q9.01876675,8.535488,9.15800075,8.559571Q9.28575875,8.497209,9.41891675,8.44378Z" fill="#54C024" fill-opacity="1"/></g></g></g></g></g></g></svg>