<svg xmlns="http://www.w3.org/2000/svg" fill="none" version="1.1" width="20"
     height="20" viewBox="0 0 20 20">
    <defs>
        <clipPath id="master_svg0_34_3749">
            <rect x="0" y="0" width="20" height="20" rx="0"/>
        </clipPath>
    </defs>
    <g style="mix-blend-mode:passthrough" clip-path="url(#master_svg0_34_3749)">
        <g style="mix-blend-mode:passthrough">
            <g>
                <path d="M18.5493,6.707255425903321C16.0133,7.82566842590332,13.3899,7.26128842590332,10.3836,8.04764842590332C7.98178,8.67259842590332,5.95167,10.23164842590332,5.16229,14.43011842590332C6.49662,12.81344842590332,7.89438,11.68986842590332,9.41319,10.879868425903322C10.8663,10.10421842590332,12.4323,9.60854842590332,14.1649,9.22995842590332C14.3533,9.18895842590332,14.4303,9.44602842590332,14.2473,9.50364842590332C11.9875,10.21022842590332,10.0177,11.09741842590332,8.37126,12.23909842590332C6.61806,13.45760842590332,5.22572,14.97491842590332,4.23909,16.73085842590332C0.825297,14.61081842590332,-0.508261,10.46006842590332,1.07306,6.87642142590332C1.08969,6.83948542590332,1.10671,6.80255042590332,1.12411,6.76561442590332Q1.07693,6.47973342590332,1.02355,6.18683442590332C1.01814,6.157285825903321,1.01234,6.12773732590332,1.00654,6.09855842590332Q0.839069,6.40475442590332,0.697127,6.7264634259033205C-1.16403,10.93250842590332,0.826107,15.78860842590332,5.18235,17.67085842590332C9.5386,19.55305842590332,14.6718,17.77465842590332,16.7512,13.662968425903319Q16.429,13.85908842590332,16.0802,14.03637842590332C13.7674,17.835858425903318,8.68442,19.15145842590332,4.67923,16.98715842590332C7.32197,13.03948842590332,10.9517,15.56994842590332,14.6294,14.19298842590332C18.0183,12.923138425903321,19.6032,10.24863842590332,19.9907,7.440798425903321C20.0182,7.24429842590332,20.0812,6.03133542590332,18.5493,6.707255425903321Z"
                      fill="#54C024" fill-opacity="1"/>
            </g>
            <g>
                <path d="M2.3297352343749997,6.401703562088013C2.702195234375,8.440173562088013,2.776445234375,10.194613562088012,2.999995234375,11.261313562088013C3.154705234375,12.002603562088012,3.693845234375,13.120653562088012,4.682025234375,13.814283562088013C5.513175234375,9.856653562088013,7.499585234375,8.361503562088012,9.839105234375,7.753543562088013C10.320405234375,7.6293335620880125,10.808815234375,7.531663562088013,11.301815234375,7.461013562088013L11.291415234375,7.445503562088012C10.175975234375,5.832893562088013,7.667055234375,2.4185635620880124,0.443115234375,3.805496562088013Q1.957285234375,4.362854562088013,2.3297352343749997,6.401703562088013ZM3.695395234375,4.236904562088013C4.009605234375,4.236904562088013,4.264325234375001,4.480157562088013,4.264325234375001,4.780223562088013C4.264325234375001,5.080293562088013,4.009605234375,5.323553562088013,3.695395234375,5.323553562088013C3.381185234375,5.323553562088013,3.126465234375,5.080293562088013,3.126465234375,4.780223562088013C3.126465234375,4.480157562088013,3.381185234375,4.236904562088013,3.695395234375,4.236904562088013Z"
                      fill="#EFF43E" fill-opacity="1"/>
            </g>
            <g>
                <path d="M5.543353812866211,2.606577421875C9.77762381286621,0.902279421875,14.660423812866211,2.7584674218750003,16.51002381286621,6.775487421875Q16.72002381286621,6.748157421875,16.928823812866213,6.716397421875C14.843423812866211,2.008352421875,8.87924381286621,0.150307421875,4.287923812866211,2.778327421875Q4.626340812866211,2.818957421875,4.945418812866211,2.874727421875Q5.238197812866211,2.730307421875,5.543353812866211,2.606577421875Z"
                      fill="#54C024" fill-opacity="1"/>
            </g>
        </g>
    </g>
</svg>