<svg xmlns="http://www.w3.org/2000/svg" xmlns:xlink="http://www.w3.org/1999/xlink" fill="none" version="1.1" width="16" height="13.4736328125" viewBox="0 0 16 13.4736328125"><g style="mix-blend-mode:passthrough"><g><path d="M14.8394,4.102718803222656C12.8106,4.997450803222656,10.7119,4.545945803222656,8.30686,5.175030803222656C6.38543,5.674990803222656,4.76134,6.922230803222656,4.12983,10.281010803222657C5.1973,8.987670803222656,6.3155,8.088800803222657,7.53055,7.440810803222656C8.693,6.820290803222656,9.9458,6.4237508032226565,11.332,6.120880803222656C11.4826,6.088080803222656,11.5442,6.293740803222656,11.3979,6.3398308032226565C9.58998,6.905090803222656,8.01416,7.614850803222656,6.69701,8.528190803222657C5.29445,9.503000803222657,4.18058,10.716840803222656,3.39127,12.121580803222656C0.660238,10.425570803222655,-0.406609,7.104970803222656,0.858448,4.238050803222656C0.871752,4.208502803222657,0.885366,4.1789548032226564,0.89929,4.149405803222656Q0.861542,3.9207008032226565,0.818843,3.686381603222656C0.814512,3.6627427032226563,0.809871,3.639103903222656,0.805229,3.6157608032226562Q0.671255,3.860717803222656,0.557702,4.118084803222656C-0.931221,7.482920803222656,0.660886,11.367800803222657,4.14588,12.873560803222656C7.63088,14.379360803222657,11.7374,12.956670803222655,13.401,9.667290803222656Q13.1432,9.824190803222656,12.8642,9.966020803222655C11.0139,13.005580803222657,6.94754,14.058060803222656,3.74338,12.326650803222655C5.85758,9.168510803222656,8.76138,11.192870803222657,11.7036,10.091300803222655C14.4146,9.075430803222655,15.6826,6.935820803222656,15.9926,4.689550803222656C16.0146,4.532353803222656,16.065,3.561982403222656,14.8394,4.102718803222656Z" fill="#54C024" fill-opacity="1"/></g><g><path d="M1.8637921875,3.8582709360122682C2.1617521875000003,5.4890509360122675,2.2211621875,6.892600936012268,2.4000021875,7.745960936012268C2.5237621875,8.339000936012269,2.9550821875,9.233430936012269,3.7456221875,9.788350936012268C4.4105421875,6.622230936012268,5.9996621875,5.426110936012268,7.8712821875,4.939750936012269C8.2563321875,4.840380936012268,8.6470321875,4.762240936012268,9.0414721875,4.705720936012268L9.0331221875,4.693310936012268C8.140782187500001,3.4032309360122683,6.1336421875,0.6717669360122681,0.3544921875,1.781311936012268Q1.5658321875,2.227197936012268,1.8637921875,3.8582709360122682ZM2.9563121875,2.126437936012268C3.2076821875,2.126437936012268,3.4114521875,2.321039936012268,3.4114521875,2.561090936012268C3.4114521875,2.8011509360122684,3.2076821875,2.995750936012268,2.9563121875,2.995750936012268C2.7049521875,2.995750936012268,2.5011721875,2.8011509360122684,2.5011721875,2.561090936012268C2.5011721875,2.321039936012268,2.7049521875,2.126437936012268,2.9563121875,2.126437936012268Z" fill="#EFF43E" fill-opacity="1"/></g><g><path d="M4.4346788595581055,0.822172C7.822098859558105,-0.541262,11.728368859558106,0.943689,13.207988859558105,4.15731Q13.375998859558106,4.13544,13.543038859558106,4.11003C11.874748859558105,0.343596,7.103388859558105,-1.14284,3.4303388595581055,0.959573Q3.7010718595581054,0.992076,3.9563348595581056,1.03669Q4.190557859558106,0.92116,4.4346788595581055,0.822172Z" fill="#54C024" fill-opacity="1"/></g></g></svg>