<svg xmlns="http://www.w3.org/2000/svg" xmlns:xlink="http://www.w3.org/1999/xlink" fill="none" version="1.1" width="16" height="16" viewBox="0 0 16 16"><clipPath id="master_svg0_24_0334"><rect x="0" y="0" width="16" height="16" rx="0"/></clipPath><g clip-path="url(#master_svg0_24_0334)" style="mix-blend-mode:passthrough"><rect x="0" y="0" width="16" height="16" rx="0" fill="#FFFFFF" fill-opacity="1"/><g><g style="mix-blend-mode:passthrough"><ellipse cx="8" cy="8" rx="8" ry="8" fill="#D8D8D8" fill-opacity="0"/><ellipse cx="8" cy="8" rx="7" ry="7" fill-opacity="0" stroke-opacity="1" stroke="#45B87D" stroke-width="2" fill="none" stroke-dasharray=""/></g><g style="mix-blend-mode:passthrough"><path d="M8.315100000000001,13.2708C9.63965,13.2708,10.78646,12.7673,11.44662,12.1156L11.44662,7.638350000000001L8.01465,7.638350000000001L8.01465,9.2083L9.72005,9.2083L9.72005,11.2227C9.45768,11.4723,8.97949,11.6077,8.522459999999999,11.6077C6.6266300000000005,11.6077,5.67448,10.2705,5.67448,8.1165C5.67448,5.9541,6.76628,4.63379,8.37858,4.63379C9.23763,4.63379,9.783529999999999,5.00618,10.26595,5.48861L11.29427,4.21484C10.66797,3.5800799999999997,9.707360000000001,2.97917,8.315100000000001,2.97917C5.75488,2.97917,3.698242,4.85384,3.698242,8.1842C3.698242,11.5273,5.7041,13.2708,8.315100000000001,13.2708Z" fill="#45B87D" fill-opacity="1"/></g></g></g></svg>