<svg xmlns="http://www.w3.org/2000/svg" xmlns:xlink="http://www.w3.org/1999/xlink" fill="none" version="1.1" width="16" height="16" viewBox="0 0 16 16"><clipPath id="master_svg0_24_0839"><rect x="0" y="0" width="16" height="16" rx="0"/></clipPath><g clip-path="url(#master_svg0_24_0839)" style="mix-blend-mode:passthrough"><rect x="0" y="0" width="16" height="16" rx="0" fill="#FFFFFF" fill-opacity="1"/><g><g style="mix-blend-mode:passthrough"><ellipse cx="8" cy="8" rx="8" ry="8" fill="#D8D8D8" fill-opacity="0"/><ellipse cx="8" cy="8" rx="7" ry="7" fill-opacity="0" stroke-opacity="1" stroke="#5980ED" stroke-width="2" fill="none" stroke-dasharray=""/></g><g style="mix-blend-mode:passthrough"><path d="M8.00195,13.2708C10.549479999999999,13.2708,12.30566,11.3496,12.30566,8.0742C12.30566,4.80729,10.549479999999999,2.97917,8.00195,2.97917C5.45443,2.97917,3.698242,4.80729,3.698242,8.0742C3.698242,11.3496,5.45443,13.2708,8.00195,13.2708ZM8.00195,11.6077C6.57161,11.6077,5.67448,10.2197,5.67448,8.0742C5.67448,5.92448,6.57161,4.63379,8.00195,4.63379C9.43229,4.63379,10.342120000000001,5.92448,10.342120000000001,8.0742C10.342120000000001,10.2197,9.43229,11.6077,8.00195,11.6077Z" fill="#5980ED" fill-opacity="1"/></g></g></g></svg>