<svg xmlns="http://www.w3.org/2000/svg" xmlns:xlink="http://www.w3.org/1999/xlink" fill="none" version="1.1" width="16" height="16" viewBox="0 0 16 16"><clipPath id="master_svg0_24_0130"><rect x="0" y="0" width="16" height="16" rx="0"/></clipPath><g clip-path="url(#master_svg0_24_0130)" style="mix-blend-mode:passthrough"><rect x="0" y="0" width="16" height="16" rx="0" fill="#FFFFFF" fill-opacity="1"/><g><g style="mix-blend-mode:passthrough"><ellipse cx="8" cy="8" rx="8" ry="8" fill="#D8D8D8" fill-opacity="0"/><ellipse cx="8" cy="8" rx="7" ry="7" fill-opacity="0" stroke-opacity="1" stroke="#45ACB8" stroke-width="2" fill="none" stroke-dasharray=""/></g><g style="mix-blend-mode:passthrough"><path d="M5.18066,13L7.106120000000001,13L7.106120000000001,9.4792L8.392579999999999,9.4792C10.45768,9.4792,12.1123,8.4932,12.1123,6.288410000000001C12.1123,4.00749,10.470379999999999,3.25,8.3418,3.25L5.18066,3.25L5.18066,13ZM7.106120000000001,7.959960000000001L7.106120000000001,4.78613L8.19792,4.78613C9.522459999999999,4.78613,10.22494,5.16276,10.22494,6.288410000000001C10.22494,7.397130000000001,9.59017,7.959960000000001,8.261389999999999,7.959960000000001L7.106120000000001,7.959960000000001Z" fill="#45ACB8" fill-opacity="1"/></g></g></g></svg>