<svg xmlns="http://www.w3.org/2000/svg" xmlns:xlink="http://www.w3.org/1999/xlink" fill="none" version="1.1" width="40" height="16" viewBox="0 0 40 16"><g style="mix-blend-mode:passthrough"><g><g style="mix-blend-mode:passthrough"><rect x="0" y="0" width="40" height="16" rx="6" fill="#D9D03C" fill-opacity="0.23999999463558197"/><rect x="1" y="1" width="38" height="14" rx="5" fill-opacity="0" stroke-opacity="1" stroke="#D9D03C" stroke-width="2" fill="none" stroke-dasharray=""/></g><g style="mix-blend-mode:passthrough"><path d="M12.5,9.278649999999999L12.5,12L10.833333,12L10.833333,4.29167L13.5319,4.29167Q16.45833,4.29167,16.45833,6.71354Q16.45833,7.88867,15.57292,8.59831Q14.690750000000001,9.30794,13.36263,9.278649999999999L12.5,9.278649999999999ZM12.503260000000001,5.54167L12.503260000000001,8.04167L13.25846,8.04167Q14.79167,8.04167,14.79167,6.77539Q14.79167,5.54167,13.27148,5.54167L12.503260000000001,5.54167ZM23.5417,8.611329999999999Q23.5417,12,20.4688,12Q17.5,12,17.5,8.69922L17.5,4.29167L19.16667,4.29167L19.16667,8.70898Q19.16667,10.60352,20.5306,10.60352Q21.875,10.60352,21.875,8.777339999999999L21.875,4.29167L23.5417,4.29167L23.5417,8.611329999999999ZM30.4167,5.61003L28.3333,5.61003L28.3333,12L26.6667,12L26.6667,5.61003L24.5833,5.61003L24.5833,4.29167L30.4167,4.29167L30.4167,5.61003Z" fill="#EA8C72" fill-opacity="1"/><path d="M13.36263,9.278649999999999Q13.43192,9.28017,13.5,9.27969Q14.73678,9.27092,15.57292,8.59831Q16.45833,7.88867,16.45833,6.71354Q16.45833,4.29167,13.5319,4.29167L10.833333,4.29167L10.833333,12L12.5,12L12.5,9.278649999999999L13.36263,9.278649999999999ZM29.3333,5.61003L30.4167,5.61003L30.4167,4.29167L24.5833,4.29167L24.5833,5.61003L26.6667,5.61003L26.6667,12L28.3333,12L28.3333,5.61003L29.3333,5.61003ZM20.4688,12Q23.5417,12,23.5417,8.611329999999999L23.5417,4.29167L21.875,4.29167L21.875,8.777339999999999Q21.875,10.60352,20.5306,10.60352Q19.16667,10.60352,19.16667,8.70898L19.16667,4.29167L17.5,4.29167L17.5,8.69922Q17.5,12,20.4688,12ZM12.503260000000001,6.54167L12.503260000000001,5.54167L13.27148,5.54167Q13.39216,5.54167,13.503260000000001,5.549440000000001Q14.79167,5.6396,14.79167,6.77539Q14.79167,7.93619,13.503260000000001,8.032879999999999Q13.38618,8.04167,13.25846,8.04167L12.503260000000001,8.04167L12.503260000000001,6.54167Z" fill-rule="evenodd" fill="#D9D03C" fill-opacity="1"/></g></g></g></svg>