<svg xmlns="http://www.w3.org/2000/svg" xmlns:xlink="http://www.w3.org/1999/xlink" fill="none" version="1.1" width="40" height="16" viewBox="0 0 40 16"><g style="mix-blend-mode:passthrough"><g><g style="mix-blend-mode:passthrough"><rect x="0" y="0" width="40" height="16" rx="6" fill="#A3A799" fill-opacity="0.23999999463558197"/><rect x="1" y="1" width="38" height="14" rx="5" fill-opacity="0" stroke-opacity="1" stroke="#A3A799" stroke-width="2" fill="none" stroke-dasharray=""/></g><g style="mix-blend-mode:passthrough"><path d="M12.5,9.278649999999999L12.5,12L10.833333,12L10.833333,4.29167L13.5319,4.29167Q16.45833,4.29167,16.45833,6.71354Q16.45833,7.88867,15.57292,8.59831Q14.690750000000001,9.30794,13.36263,9.278649999999999L12.5,9.278649999999999ZM12.503260000000001,5.54167L12.503260000000001,8.04167L13.25846,8.04167Q14.79167,8.04167,14.79167,6.77539Q14.79167,5.54167,13.27148,5.54167L12.503260000000001,5.54167ZM22.7083,5.61003L20.625,5.61003L20.625,12L18.95833,12L18.95833,5.61003L16.875,5.61003L16.875,4.29167L22.7083,4.29167L22.7083,5.61003ZM29.1667,11.60938Q28.3464,12,27.028,12Q25.3288,12,24.3294,10.99414Q23.3333,9.98503,23.3333,8.305340000000001Q23.3333,6.53776,24.4466,5.4147099999999995Q25.5599,4.29167,27.321,4.29167Q28.4245,4.29167,29.1667,4.574870000000001L29.1667,6.10482Q28.4017,5.68815,27.4316,5.68815Q26.3249,5.68815,25.660800000000002,6.38151Q25,7.07161,25,8.18815Q25,9.27539,25.6283,9.93945Q26.2565,10.60352,27.3307,10.60352Q28.3366,10.60352,29.1667,10.18685L29.1667,11.60938Z" fill="#B87AD8" fill-opacity="1"/><path d="M13.36263,9.278649999999999Q13.43192,9.28017,13.5,9.27969Q14.73678,9.27092,15.57292,8.59831Q16.45833,7.88867,16.45833,6.71354Q16.45833,6.66123,16.45697,6.61003Q16.43011,5.603289999999999,15.875,5.03373Q15.151779999999999,4.29167,13.5319,4.29167L10.833333,4.29167L10.833333,12L12.5,12L12.5,9.278649999999999L13.36263,9.278649999999999ZM16.875,4.67179L16.875,5.61003L18.95833,5.61003L18.95833,12L20.625,12L20.625,5.61003L22.7083,5.61003L22.7083,4.29167L16.875,4.29167L16.875,4.67179ZM23.647199999999998,6.61003Q23.3333,7.36683,23.3333,8.305340000000001Q23.3333,9.98503,24.3294,10.99414Q25.3288,12,27.028,12Q28.3464,12,29.1667,11.60938L29.1667,10.18685Q28.695,10.42359,28.1667,10.52582Q27.7651,10.60352,27.3307,10.60352Q26.2565,10.60352,25.6283,9.93945Q25,9.27539,25,8.18815Q25,7.07161,25.660800000000002,6.38151Q26.3249,5.68815,27.4316,5.68815Q27.8152,5.68815,28.1667,5.75329Q28.7041,5.85289,29.1667,6.10482L29.1667,4.574870000000001Q28.4245,4.29167,27.321,4.29167Q25.5599,4.29167,24.4466,5.4147099999999995Q23.9795,5.88597,23.7083,6.47071Q23.6764,6.53957,23.647199999999998,6.61003ZM12.503260000000001,6.54167L12.503260000000001,5.54167L13.27148,5.54167Q13.39216,5.54167,13.503260000000001,5.549440000000001Q14.79167,5.6396,14.79167,6.77539Q14.79167,7.93619,13.503260000000001,8.032879999999999Q13.38618,8.04167,13.25846,8.04167L12.503260000000001,8.04167L12.503260000000001,6.54167Z" fill-rule="evenodd" fill="#A3A799" fill-opacity="1"/></g></g></g></svg>