<svg xmlns="http://www.w3.org/2000/svg" fill="none" version="1.1" width="40"
     height="16" viewBox="0 0 40 16">
    <g style="mix-blend-mode:passthrough">
        <g>
            <g style="mix-blend-mode:passthrough">
                <rect x="0" y="0" width="40" height="16" rx="6" fill="#7CDCC1" fill-opacity="0.23999999463558197"/>
                <rect x="1" y="1" width="38" height="14" rx="5" fill-opacity="0" stroke-opacity="1" stroke="#7CDCC1"
                      stroke-width="2" fill="none" stroke-dasharray=""/>
            </g>
            <g style="mix-blend-mode:passthrough">
                <path d="M6.416667,8.243490000000001Q6.416667,6.49219,7.44206,5.39193Q8.46745,4.29167,10.15039,4.29167Q11.75521,4.29167,12.731770000000001,5.356120000000001Q13.70833,6.41732,13.70833,8.087240000000001Q13.70833,9.82878,12.69271,10.91602Q11.67708,12,10.02995,12Q8.42513,12,7.41927,10.94857Q6.416667,9.89714,6.416667,8.243490000000001ZM8.08333,8.1556Q8.08333,9.23307,8.61068,9.919920000000001Q9.138020000000001,10.60352,10.059239999999999,10.60352Q10.996739999999999,10.60352,11.517579999999999,9.94922Q12.04167,9.29167,12.04167,8.184899999999999Q12.04167,7.0293,11.533850000000001,6.35872Q11.02604,5.68815,10.10156,5.68815Q9.16406,5.68815,8.6237,6.375Q8.08333,7.06185,8.08333,8.1556ZM16.625,9.278649999999999L16.625,12L14.95833,12L14.95833,4.29167L17.6569,4.29167Q20.5833,4.29167,20.5833,6.71354Q20.5833,7.88867,19.6979,8.59831Q18.8158,9.30794,17.4876,9.278649999999999L16.625,9.278649999999999ZM16.6283,5.54167L16.6283,8.04167L17.383499999999998,8.04167Q18.9167,8.04167,18.9167,6.77539Q18.9167,5.54167,17.3965,5.54167L16.6283,5.54167ZM26.8333,5.61003L24.75,5.61003L24.75,12L23.0833,12L23.0833,5.61003L21,5.61003L21,4.29167L26.8333,4.29167L26.8333,5.61003ZM27.4583,9.88737Q28.4089,10.7207,29.6198,10.7207Q30.3066,10.7207,30.6517,10.5026Q31,10.2845,31,9.93945Q31,9.643229999999999,30.7266,9.38281Q30.4564,9.11914,29.291,8.66667Q27.4583,7.92122,27.4583,6.49544Q27.4583,5.45052,28.2624,4.871090000000001Q29.0664,4.29167,30.388,4.29167Q31.498,4.29167,32.25,4.5651L32.25,5.99414Q31.4785,5.57747,30.4466,5.57747Q29.8444,5.57747,29.4831,5.798830000000001Q29.125,6.02018,29.125,6.39453Q29.125,6.69401,29.3757,6.94466Q29.6296,7.19531,30.6257,7.625Q31.791,8.090499999999999,32.227199999999996,8.611329999999999Q32.6667,9.128910000000001,32.6667,9.84505Q32.6667,10.89648,31.8757,11.44987Q31.0879,12,29.6361,12Q28.3079,12,27.4583,11.5638L27.4583,9.88737Z"
                      fill="#EA8C72" fill-opacity="1"/>
                <path d="M21,4.67179L21,5.61003L23.0833,5.61003L23.0833,12L24.75,12L24.75,5.61003L26.8333,5.61003L26.8333,4.29167L21,4.29167L21,4.67179ZM20,5.03373Q19.2768,4.29167,17.6569,4.29167L14.95833,4.29167L14.95833,12L16.625,12L16.625,9.278649999999999L17.4876,9.278649999999999Q17.5569,9.28017,17.625,9.27969Q18.861800000000002,9.27092,19.6979,8.59831Q20.5833,7.88867,20.5833,6.71354Q20.5833,6.66121,20.582,6.61003Q20.5551,5.603289999999999,20,5.03373ZM27.8333,5.28533Q27.4583,5.781829999999999,27.4583,6.49544Q27.4583,6.55329,27.4613,6.61003Q27.5327,7.95147,29.291,8.66667Q30.4564,9.11914,30.7266,9.38281Q31,9.643229999999999,31,9.93945Q31,10.2845,30.6517,10.5026Q30.3066,10.7207,29.6198,10.7207Q29.0056,10.7207,28.4583,10.5063Q27.9267,10.29801,27.4583,9.88737L27.4583,11.5638Q28.3079,12,29.6361,12Q31.0879,12,31.8757,11.44987Q32.6667,10.89648,32.6667,9.84505Q32.6667,9.128910000000001,32.227199999999996,8.611329999999999Q31.791,8.090499999999999,30.6257,7.625Q29.6296,7.19531,29.3757,6.94466Q29.125,6.69401,29.125,6.39453Q29.125,6.02018,29.4831,5.798830000000001Q29.8444,5.57747,30.4466,5.57747Q30.8703,5.57747,31.25,5.6477Q31.7952,5.748530000000001,32.25,5.99414L32.25,4.5651Q31.498,4.29167,30.388,4.29167Q29.0664,4.29167,28.2624,4.871090000000001Q28.0074,5.05481,27.8333,5.28533ZM7.44206,5.39193Q6.416667,6.49219,6.416667,8.243490000000001Q6.416667,9.89714,7.41927,10.94857Q8.42513,12,10.02995,12Q11.67708,12,12.69271,10.91602Q13.70833,9.82878,13.70833,8.087240000000001Q13.70833,6.41732,12.731770000000001,5.356120000000001Q11.75521,4.29167,10.15039,4.29167Q8.46745,4.29167,7.44206,5.39193ZM16.6283,6.54167L16.6283,5.54167L17.3965,5.54167Q17.517200000000003,5.54167,17.6283,5.549440000000001Q18.9167,5.6396,18.9167,6.77539Q18.9167,7.93619,17.6283,8.032879999999999Q17.511200000000002,8.04167,17.383499999999998,8.04167L16.6283,8.04167L16.6283,6.54167ZM8.61068,9.919920000000001Q8.08333,9.23307,8.08333,8.1556Q8.08333,7.06185,8.6237,6.375Q9.16406,5.68815,10.10156,5.68815Q11.02604,5.68815,11.533850000000001,6.35872Q12.04167,7.0293,12.04167,8.184899999999999Q12.04167,9.29167,11.517579999999999,9.94922Q10.996739999999999,10.60352,10.059239999999999,10.60352Q9.138020000000001,10.60352,8.61068,9.919920000000001Z"
                      fill-rule="evenodd" fill="#7CDCC1" fill-opacity="1"/>
            </g>
        </g>
    </g>
</svg>