<svg xmlns="http://www.w3.org/2000/svg" fill="none" version="1.1" width="40"
     height="16" viewBox="0 0 40 16">
    <g style="mix-blend-mode:passthrough">
        <g>
            <g style="mix-blend-mode:passthrough">
                <rect x="0" y="0" width="40" height="16" rx="6" fill="#D6B573" fill-opacity="0.23999999463558197"/>
                <rect x="1" y="1" width="38" height="14" rx="5" fill-opacity="0" stroke-opacity="1" stroke="#D6B573"
                      stroke-width="2" fill="none" stroke-dasharray=""/>
            </g>
            <g style="mix-blend-mode:passthrough">
                <path d="M12.04167,5.61003L9.95833,5.61003L9.95833,12L8.29167,12L8.29167,5.61003L6.208333,5.61003L6.208333,4.29167L12.04167,4.29167L12.04167,5.61003ZM19.3333,12L17.474600000000002,12L16.2865,10.02734Q15.93164,9.41536,15.70378,9.23958Q15.47917,9.0638,15.222,9.0638L14.75,9.0638L14.75,12L13.08333,12L13.08333,4.29167L15.76562,4.29167Q18.5,4.29167,18.5,6.41081Q18.5,7.20833,18.0312,7.78125Q17.5658,8.350909999999999,16.7454,8.58203L16.7454,8.60156Q17.2695,8.777339999999999,17.9043,9.757159999999999L19.3333,12ZM14.69792,5.518879999999999L14.69792,7.83333L15.52474,7.83333Q16.1139,7.83333,16.472,7.48503Q16.8333,7.13346,16.8333,6.60938Q16.8333,5.518879999999999,15.55404,5.518879999999999L14.69792,5.518879999999999ZM26.8333,12L25.0397,12L24.4635,10.12175L21.6836,10.12175L21.1172,12L19.3333,12L22.25,4.29167L24.125,4.29167L26.8333,12ZM24.0827,8.875L23.2005,6.25456Q23.1191,6.00716,23.0833,5.59701Q23.054,5.9290400000000005,22.9434,6.23503L22.0352,8.875L24.0827,8.875ZM33.0833,11.60938Q32.263000000000005,12,30.9447,12Q29.2454,12,28.2461,10.99414Q27.25,9.98503,27.25,8.305340000000001Q27.25,6.53776,28.3633,5.4147099999999995Q29.4766,4.29167,31.2376,4.29167Q32.3411,4.29167,33.0833,4.574870000000001L33.0833,6.10482Q32.3184,5.68815,31.3483,5.68815Q30.2415,5.68815,29.5775,6.38151Q28.9167,7.07161,28.9167,8.18815Q28.9167,9.27539,29.5449,9.93945Q30.1732,10.60352,31.2474,10.60352Q32.253299999999996,10.60352,33.0833,10.18685L33.0833,11.60938Z"
                      fill="#B87AD8" fill-opacity="1"/>
                <path d="M24.125,4.29167L26.482,11L26.8333,12L25.0397,12L24.4635,10.12175L21.6836,10.12175L21.1172,12L19.3333,12L19.7117,11L19.775100000000002,10.83242L22.1778,4.482530000000001L22.25,4.29167L24.125,4.29167ZM15.81642,9.344719999999999Q16.014,9.55745,16.2865,10.02734L17.474600000000002,12L19.3333,12L18.696199999999997,11L18.6625,10.94716L17.9043,9.757159999999999Q17.750999999999998,9.5206,17.6042,9.330919999999999Q17.1465,8.739460000000001,16.7515,8.603629999999999Q16.7485,8.60258,16.7454,8.60156L16.7454,8.58203Q16.7491,8.58101,16.7527,8.579979999999999Q17.353,8.40943,17.7626,8.05686Q17.909100000000002,7.93071,18.0312,7.78125Q18.5,7.20833,18.5,6.41081Q18.5,4.29167,15.76562,4.29167L13.08333,4.29167L13.08333,12L14.75,12L14.75,9.0638L15.222,9.0638Q15.47917,9.0638,15.70378,9.23958Q15.7241,9.25526,15.74544,9.27442Q15.74771,9.27646,15.75,9.27854Q15.78208,9.307739999999999,15.81642,9.344719999999999ZM15.7776,7.81578Q15.96788,7.7881,16.1292,7.71673Q16.3211,7.6318,16.472,7.48503Q16.8333,7.13346,16.8333,6.60938Q16.8333,5.58203,15.69792,5.522539999999999Q15.62812,5.518879999999999,15.55404,5.518879999999999L14.69792,5.518879999999999L14.69792,7.83333L15.52474,7.83333Q15.61398,7.83333,15.69792,7.82534Q15.73837,7.82149,15.7776,7.81578ZM10.95833,5.61003L12.04167,5.61003L12.04167,4.29167L6.208333,4.29167L6.208333,5.61003L8.29167,5.61003L8.29167,12L9.95833,12L9.95833,5.61003L10.95833,5.61003ZM23.746,7.875L24.0827,8.875L22.0352,8.875L22.3792,7.875L22.5367,7.41704L22.9434,6.23503Q23.054,5.9290400000000005,23.0833,5.59701Q23.1191,6.00716,23.2005,6.25456L23.593,7.42041L23.746,7.875ZM30.9447,12Q32.263000000000005,12,33.0833,11.60938L33.0833,10.18685Q32.6117,10.42359,32.0833,10.52582Q31.6818,10.60352,31.2474,10.60352Q30.1732,10.60352,29.5449,9.93945Q28.9167,9.27539,28.9167,8.18815Q28.9167,7.07161,29.5775,6.38151Q30.2415,5.68815,31.3483,5.68815Q31.7318,5.68815,32.0833,5.75329Q32.6208,5.85289,33.0833,6.10482L33.0833,4.574870000000001Q32.3411,4.29167,31.2376,4.29167Q29.4766,4.29167,28.3633,5.4147099999999995Q27.25,6.53776,27.25,8.305340000000001Q27.25,9.98503,28.2461,10.99414Q29.2454,12,30.9447,12Z"
                      fill-rule="evenodd" fill="#D6B573" fill-opacity="1"/>
            </g>
        </g>
    </g>
</svg>