<svg xmlns="http://www.w3.org/2000/svg" fill="none" version="1.1" width="40"
     height="16" viewBox="0 0 40 16">
    <g style="mix-blend-mode:passthrough">
        <g>
            <g style="mix-blend-mode:passthrough">
                <rect x="0" y="0" width="40" height="16" rx="6" fill="#62A7DF" fill-opacity="0.23999999463558197"/>
                <rect x="1" y="1" width="38" height="14" rx="5" fill-opacity="0" stroke-opacity="1" stroke="#62A7DF"
                      stroke-width="2" fill="none" stroke-dasharray=""/>
            </g>
            <g style="mix-blend-mode:passthrough">
                <path d="M9.5,9.278649999999999L9.5,12L7.833333,12L7.833333,4.29167L10.5319,4.29167Q13.45833,4.29167,13.45833,6.71354Q13.45833,7.88867,12.57292,8.59831Q11.690750000000001,9.30794,10.36263,9.278649999999999L9.5,9.278649999999999ZM9.503260000000001,5.54167L9.503260000000001,8.04167L10.25846,8.04167Q11.79167,8.04167,11.79167,6.77539Q11.79167,5.54167,10.27148,5.54167L9.503260000000001,5.54167ZM14.08333,8.243490000000001Q14.08333,6.49219,15.10872,5.39193Q16.13411,4.29167,17.8171,4.29167Q19.4219,4.29167,20.398400000000002,5.356120000000001Q21.375,6.41732,21.375,8.087240000000001Q21.375,9.82878,20.3594,10.91602Q19.3438,12,17.6966,12Q16.0918,12,15.08594,10.94857Q14.08333,9.89714,14.08333,8.243490000000001ZM15.75,8.1556Q15.75,9.23307,16.277340000000002,9.919920000000001Q16.80469,10.60352,17.7259,10.60352Q18.6634,10.60352,19.1842,9.94922Q19.7083,9.29167,19.7083,8.184899999999999Q19.7083,7.0293,19.200499999999998,6.35872Q18.692700000000002,5.68815,17.7682,5.68815Q16.830730000000003,5.68815,16.29036,6.375Q15.75,7.06185,15.75,8.1556ZM22.2083,9.88737Q23.1589,10.7207,24.3698,10.7207Q25.0566,10.7207,25.4017,10.5026Q25.75,10.2845,25.75,9.93945Q25.75,9.643229999999999,25.4766,9.38281Q25.2064,9.11914,24.041,8.66667Q22.2083,7.92122,22.2083,6.49544Q22.2083,5.45052,23.0124,4.871090000000001Q23.8164,4.29167,25.138,4.29167Q26.248,4.29167,27,4.5651L27,5.99414Q26.2285,5.57747,25.1966,5.57747Q24.5944,5.57747,24.2331,5.798830000000001Q23.875,6.02018,23.875,6.39453Q23.875,6.69401,24.1257,6.94466Q24.3796,7.19531,25.3757,7.625Q26.541,8.090499999999999,26.9772,8.611329999999999Q27.4167,9.128910000000001,27.4167,9.84505Q27.4167,10.89648,26.6257,11.44987Q25.8379,12,24.3861,12Q23.0579,12,22.2083,11.5638L22.2083,9.88737ZM33.875,5.61003L31.7917,5.61003L31.7917,12L30.125,12L30.125,5.61003L28.0417,5.61003L28.0417,4.29167L33.875,4.29167L33.875,5.61003Z"
                      fill="#62A7DF" fill-opacity="1"/>
                <path d="M10.36263,9.278649999999999Q10.43192,9.28017,10.5,9.27969Q11.73678,9.27092,12.57292,8.59831Q12.884360000000001,8.348700000000001,13.08625,8.04149Q13.45833,7.47533,13.45833,6.71354Q13.45833,6.46098,13.42651,6.23476Q13.15315,4.29167,10.5319,4.29167L7.833333,4.29167L7.833333,12L9.5,12L9.5,9.278649999999999L10.36263,9.278649999999999ZM14.44754,6.38725Q14.08333,7.19975,14.08333,8.243490000000001Q14.08333,8.285070000000001,14.08397,8.32624Q14.10853,9.92356,15.08594,10.94857Q16.0918,12,17.6966,12Q19.3438,12,20.3594,10.91602Q20.9636,10.26921,21.2083,9.39085Q21.375,8.792729999999999,21.375,8.087240000000001Q21.375,7.95228,21.3686,7.82129Q21.3568,7.57818,21.323,7.34877Q21.288899999999998,7.11775,21.232599999999998,6.90064Q21.0021,6.01208,20.398400000000002,5.356120000000001Q19.4219,4.29167,17.8171,4.29167Q16.13411,4.29167,15.10872,5.39193Q14.69445,5.83645,14.44754,6.38725ZM22.2202,6.72025Q22.240099999999998,6.90615,22.293799999999997,7.07954Q22.604100000000003,8.08221,24.041,8.66667Q25.2064,9.11914,25.4766,9.38281Q25.75,9.643229999999999,25.75,9.93945Q25.75,10.2845,25.4017,10.5026Q25.0566,10.7207,24.3698,10.7207Q23.7556,10.7207,23.2083,10.5063Q22.6767,10.29801,22.2083,9.88737L22.2083,11.5638Q23.0579,12,24.3861,12Q25.8379,12,26.6257,11.44987Q27.4167,10.89648,27.4167,9.84505Q27.4167,9.128910000000001,26.9772,8.611329999999999Q26.541,8.090499999999999,25.3757,7.625Q24.3796,7.19531,24.1257,6.94466Q23.875,6.69401,23.875,6.39453Q23.875,6.02018,24.2331,5.798830000000001Q24.5944,5.57747,25.1966,5.57747Q25.6203,5.57747,26,5.6477Q26.5452,5.748530000000001,27,5.99414L27,4.5651Q26.248,4.29167,25.138,4.29167Q23.8164,4.29167,23.0124,4.871090000000001Q22.2083,5.45052,22.2083,6.49544Q22.2083,6.61004,22.2202,6.72025ZM32.7917,5.61003L33.875,5.61003L33.875,4.29167L28.0417,4.29167L28.0417,5.61003L30.125,5.61003L30.125,12L31.7917,12L31.7917,5.61003L32.7917,5.61003ZM9.503260000000001,6.54167L9.503260000000001,5.54167L10.27148,5.54167Q10.39216,5.54167,10.503260000000001,5.549440000000001Q11.79167,5.6396,11.79167,6.77539Q11.79167,7.93619,10.503260000000001,8.032879999999999Q10.38618,8.04167,10.25846,8.04167L9.503260000000001,8.04167L9.503260000000001,6.54167ZM16.277340000000002,9.919920000000001Q15.75,9.23307,15.75,8.1556Q15.75,7.06185,16.29036,6.375Q16.830730000000003,5.68815,17.7682,5.68815Q18.692700000000002,5.68815,19.200499999999998,6.35872Q19.7083,7.0293,19.7083,8.184899999999999Q19.7083,9.29167,19.1842,9.94922Q18.6634,10.60352,17.7259,10.60352Q16.80469,10.60352,16.277340000000002,9.919920000000001Z"
                      fill-rule="evenodd" fill="#62A7DF" fill-opacity="1"/>
            </g>
        </g>
    </g>
</svg>