<svg xmlns="http://www.w3.org/2000/svg" fill="none" version="1.1" width="40"
     height="16" viewBox="0 0 40 16">
    <g style="mix-blend-mode:passthrough">
        <g>
            <g style="mix-blend-mode:passthrough">
                <rect x="0" y="0" width="40" height="16" rx="6" fill="#94C88A" fill-opacity="0.23999999463558197"/>
                <rect x="1" y="1" width="38" height="14" rx="5" fill-opacity="0" stroke-opacity="1" stroke="#94C88A"
                      stroke-width="2" fill="none" stroke-dasharray=""/>
            </g>
            <g style="mix-blend-mode:passthrough">
                <path d="M16.3186815625,11.36523Q15.2021515625,12,13.5745415625,12Q11.7548815625,12,10.7034515625,11.00065Q9.6520185625,9.99805,9.6520185625,8.25977Q9.6520185625,6.4987,10.794591562499999,5.39518Q11.9371715625,4.29167,13.8024115625,4.29167Q15.003581562499999,4.29167,15.9020215625,4.61719L15.9020215625,6.06576Q15.0263715625,5.64909,13.760091562500001,5.64909Q12.6728515625,5.64909,11.9957715625,6.3457Q11.3186815625,7.04232,11.3186815625,8.184899999999999Q11.3186815625,9.34375,11.9339215625,9.99479Q12.5524115625,10.64258,13.616861562499999,10.64258Q14.248371562500001,10.64258,14.6520215625,10.43425L14.6520215625,8.92057L13.1936815625,8.92057L13.1936815625,7.625L16.3186815625,7.625L16.3186815625,11.36523ZM22.1520515625,12L17.7770215625,12L17.7770215625,4.29167L21.9436515625,4.29167L21.9436515625,5.61003L19.3525515625,5.61003L19.3525515625,7.41667L21.7353515625,7.41667L21.7353515625,8.731770000000001L19.4436515625,8.731770000000001L19.4436515625,10.68164L22.1520515625,10.68164L22.1520515625,12ZM28.6103515625,5.61003L26.5270515625,5.61003L26.5270515625,12L24.8603515625,12L24.8603515625,5.61003L22.7770515625,5.61003L22.7770515625,4.29167L28.6103515625,4.29167L28.6103515625,5.61003Z"
                      fill="#94C88A" fill-opacity="1"/>
            </g>
        </g>
    </g>
</svg>