<svg xmlns="http://www.w3.org/2000/svg" xmlns:xlink="http://www.w3.org/1999/xlink" fill="none" version="1.1" width="40" height="16" viewBox="0 0 40 16"><g style="mix-blend-mode:passthrough"><g><g style="mix-blend-mode:passthrough"><rect x="0" y="0" width="40" height="16" rx="6" fill="#B87AD8" fill-opacity="0.23999999463558197"/><rect x="1" y="1" width="38" height="14" rx="5" fill-opacity="0" stroke-opacity="1" stroke="#B87AD8" stroke-width="2" fill="none" stroke-dasharray=""/></g><g style="mix-blend-mode:passthrough"><path d="M12.29167,12L10.625,12L10.625,8.809899999999999L7.5,8.809899999999999L7.5,12L5.833333,12L5.833333,4.29167L7.5,4.29167L7.5,7.41667L10.625,7.41667L10.625,4.29167L12.29167,4.29167L12.29167,12ZM18.3333,12L13.95833,12L13.95833,4.29167L18.125,4.29167L18.125,5.61003L15.5339,5.61003L15.5339,7.41667L17.9167,7.41667L17.9167,8.731770000000001L15.625,8.731770000000001L15.625,10.68164L18.3333,10.68164L18.3333,12ZM26.25,12L24.4564,12L23.8802,10.12175L21.1003,10.12175L20.5339,12L18.75,12L21.6667,4.29167L23.5417,4.29167L26.25,12ZM23.4993,8.875L22.6172,6.25456Q22.5358,6.00716,22.5,5.59701Q22.4707,5.9290400000000005,22.36,6.23503L21.4518,8.875L23.4993,8.875ZM27.0833,12L27.0833,4.29167L29.707,4.29167Q33.75,4.29167,33.75,8.04818Q33.75,9.83529,32.6172,10.91927Q31.4844,12,29.6973,12L27.0833,12ZM28.75,5.61003L28.75,10.68164L29.6289,10.68164Q30.7747,10.68164,31.429,9.97852Q32.0833,9.27539,32.0833,8.07422Q32.0833,6.91211,31.3997,6.26107Q30.7161,5.61003,29.6224,5.61003L28.75,5.61003Z" fill="#B87AD8" fill-opacity="1"/><path d="M23.5417,4.29167L25.8986,11L26.0833,11.52564L26.25,12L24.4564,12L23.8802,10.12175L21.1003,10.12175L20.5339,12L18.75,12L19.1284,11L19.3333,10.45833L21.5945,4.48252L21.6667,4.29167L23.5417,4.29167ZM27.3099,12L29.6973,12Q31.4844,12,32.6172,10.91927Q33.75,9.83529,33.75,8.04818Q33.75,4.29167,29.707,4.29167L27.0833,4.29167L27.0833,12L27.3099,12ZM9.625,8.809899999999999L10.625,8.809899999999999L10.625,12L12.29167,12L12.29167,4.29167L10.625,4.29167L10.625,7.41667L7.5,7.41667L7.5,4.29167L5.833333,4.29167L5.833333,12L7.5,12L7.5,8.809899999999999L9.625,8.809899999999999ZM16.5339,5.61003L18.125,5.61003L18.125,4.29167L13.95833,4.29167L13.95833,12L18.3333,12L18.3333,10.68164L15.625,10.68164L15.625,8.731770000000001L17.9167,8.731770000000001L17.9167,7.41667L15.5339,7.41667L15.5339,5.61003L16.5339,5.61003ZM23.1627,7.875L23.4993,8.875L21.4518,8.875L21.7958,7.875L21.9534,7.41704L22.36,6.23503Q22.4707,5.9290400000000005,22.5,5.59701Q22.5358,6.00716,22.6172,6.25456L23.0097,7.4204L23.1627,7.875ZM28.75,6.61003L28.75,5.61003L29.6224,5.61003Q29.6869,5.61003,29.75,5.61229Q30.7565,5.648429999999999,31.3997,6.26107Q32.0833,6.91211,32.0833,8.07422Q32.0833,9.27539,31.429,9.97852Q30.8097,10.64406,29.75,10.67963Q29.6901,10.68164,29.6289,10.68164L28.75,10.68164L28.75,6.61003Z" fill-rule="evenodd" fill="#B87AD8" fill-opacity="1"/></g></g></g></svg>