<svg xmlns="http://www.w3.org/2000/svg" xmlns:xlink="http://www.w3.org/1999/xlink" fill="none" version="1.1" width="40" height="16" viewBox="0 0 40 16"><g style="mix-blend-mode:passthrough"><g><g style="mix-blend-mode:passthrough"><rect x="0" y="0" width="40" height="16" rx="6" fill="#EA8C72" fill-opacity="0.23999999463558197"/><rect x="1" y="1" width="38" height="14" rx="5" fill-opacity="0" stroke-opacity="1" stroke="#EA8C72" stroke-width="2" fill="none" stroke-dasharray=""/></g><g style="mix-blend-mode:passthrough"><path d="M10.833333,12L10.833333,4.29167L13.45703,4.29167Q17.5,4.29167,17.5,8.04818Q17.5,9.83529,16.36719,10.91927Q15.23438,12,13.44727,12L10.833333,12ZM12.5,5.61003L12.5,10.68164L13.37891,10.68164Q14.524740000000001,10.68164,15.17904,9.97852Q15.83333,9.27539,15.83333,8.07422Q15.83333,6.91211,15.149740000000001,6.26107Q14.466149999999999,5.61003,13.372399999999999,5.61003L12.5,5.61003ZM23.125,12L18.75,12L18.75,4.29167L22.9167,4.29167L22.9167,5.61003L20.325499999999998,5.61003L20.325499999999998,7.41667L22.7083,7.41667L22.7083,8.731770000000001L20.4167,8.731770000000001L20.4167,10.68164L23.125,10.68164L23.125,12ZM28.75,12L24.375,12L24.375,4.29167L26.0417,4.29167L26.0417,10.68164L28.75,10.68164L28.75,12Z" fill="#EA8C72" fill-opacity="1"/></g></g></g></svg>